<svg version="1.1" id="Layer_1" xmlns="http://www.w3.org/2000/svg" xmlns:xlink="http://www.w3.org/1999/xlink" x="0px" y="0px"
	 width="100%" viewBox="0 0 512 512" enable-background="new 0 0 512 512" xml:space="preserve">
<path fill="#000000" opacity="1.000000" stroke="none" 
	d="
M1.000000,176.000000 
	C1.000000,172.307098 1.000000,168.614182 1.306934,164.330383 
	C2.226614,163.176102 2.860944,162.634323 3.449021,162.046280 
	C56.120579,109.378937 108.789856,56.709328 161.446548,4.027127 
	C162.376434,3.096789 163.152283,2.012468 164.000000,1.000000 
	C167.692902,1.000000 171.385818,1.000000 175.583313,1.350193 
	C174.937057,3.089310 173.887924,4.579626 172.619873,5.851700 
	C157.510300,21.009262 142.349747,36.116096 127.266510,51.299740 
	C125.943588,52.631477 125.071365,54.410938 123.841988,56.288506 
	C112.296783,65.731331 99.960838,73.937828 89.744499,84.245201 
	C77.543800,96.554611 67.157433,110.662323 55.635422,123.953506 
	C53.898533,125.070213 52.412201,126.125000 51.139336,127.393929 
	C35.981178,142.505112 20.873394,157.666885 5.687569,172.750122 
	C4.359385,174.069351 2.573361,174.927628 1.000000,176.000000 
z"/>
<path fill="#000000" opacity="1.000000" stroke="none" 
	d="
M513.000000,354.000000 
	C513.000000,357.692902 513.000000,361.385834 512.692993,365.669403 
	C511.773590,366.823029 511.139618,367.364349 510.551880,367.951996 
	C463.212555,415.287079 415.875427,462.624329 368.551086,509.974396 
	C367.621887,510.904114 366.846924,511.988007 366.000000,513.000000 
	C362.307098,513.000000 358.614166,513.000000 354.417603,512.649841 
	C354.716736,511.259094 355.415771,510.114868 356.337158,509.192871 
	C407.202911,458.293427 458.082581,407.407898 509.001038,356.561218 
	C510.095337,355.468445 511.656586,354.843292 513.000000,354.000000 
z"/>
<path fill="#000000" opacity="1.000000" stroke="none" 
	d="
M144.000000,1.000001 
	C147.692902,1.000000 151.385818,1.000000 155.582367,1.350171 
	C155.283920,2.740221 154.585587,3.883788 153.664886,4.805128 
	C104.130989,54.372807 54.583183,103.926582 4.996380,153.441315 
	C3.902903,154.533203 2.342560,155.157547 0.999999,156.000000 
	C1.000000,152.307098 1.000000,148.614182 1.307040,144.330597 
	C2.225959,143.177414 2.859432,142.636490 3.446651,142.049332 
	C49.453907,96.046432 95.458992,50.041363 141.451126,4.023338 
	C142.379593,3.094348 143.153809,2.011218 144.000000,1.000001 
z"/>
<path fill="#000000" opacity="1.000000" stroke="none" 
	d="
M346.000000,513.000000 
	C342.307098,513.000000 338.614166,513.000000 334.416809,512.649780 
	C335.066010,510.907990 336.118561,509.415710 337.388885,508.140289 
	C350.177734,495.300110 363.025482,482.518555 375.781616,469.646057 
	C377.092194,468.323517 377.914520,466.517090 379.136414,464.640320 
	C383.913239,461.359772 388.737152,458.660553 393.074524,455.328033 
	C401.811127,448.615417 410.641266,441.950348 418.761597,434.531006 
	C426.682190,427.294128 434.300354,419.577942 441.081146,411.279480 
	C449.541718,400.925323 457.009674,389.760162 465.257874,379.017151 
	C467.011627,377.953766 468.526489,376.931702 469.798309,375.665497 
	C482.645020,362.876068 495.430084,350.024597 508.302734,337.261414 
	C509.635834,335.939636 511.423340,335.076141 513.000000,334.000000 
	C513.000000,337.692902 513.000000,341.385834 512.693054,345.669556 
	C511.774200,346.822845 511.140747,347.363678 510.553528,347.950867 
	C456.546295,401.953766 402.541443,455.959045 348.549011,509.976746 
	C347.620483,510.905670 346.846222,511.988800 346.000000,513.000000 
z"/>
<path fill="#000000" opacity="1.000000" stroke="none" 
	d="
M513.000000,374.000000 
	C513.000000,377.692902 513.000000,381.385834 512.692993,385.669373 
	C470.631348,427.965393 428.875977,469.669952 387.132629,511.386536 
	C386.674835,511.844055 386.374084,512.458740 386.000000,513.000000 
	C382.307098,513.000000 378.614166,513.000000 374.417603,512.649841 
	C374.715332,511.260559 375.412964,510.117798 376.332886,509.197174 
	C420.534882,464.960876 464.750702,420.738403 509.006470,376.555908 
	C510.099121,375.465057 511.658386,374.841522 513.000000,374.000000 
z"/>
<path fill="#000000" opacity="1.000000" stroke="none" 
	d="
M1.000000,136.000000 
	C1.000000,132.307098 1.000000,128.614182 1.307038,124.330597 
	C42.034470,83.368843 82.455696,42.998619 122.864822,2.616282 
	C123.323517,2.157881 123.625084,1.542241 124.000000,1.000001 
	C127.692909,1.000000 131.385818,1.000000 135.582367,1.350170 
	C135.283020,2.741115 134.583740,3.885487 133.662186,4.807781 
	C90.797287,47.707130 47.918575,90.592697 4.999624,133.437943 
	C3.904863,134.530823 2.343663,135.156448 1.000000,136.000000 
z"/>
<path fill="#000000" opacity="1.000000" stroke="none" 
	d="
M406.000000,513.000000 
	C402.307098,513.000000 398.614166,513.000000 394.417633,512.649841 
	C394.716217,511.259674 395.414795,510.116119 396.335541,509.194519 
	C433.868500,471.626465 471.415131,434.072083 509.003326,396.559326 
	C510.097351,395.467499 511.657288,394.842590 513.000000,394.000000 
	C513.000000,397.692902 513.000000,401.385834 512.692993,405.669373 
	C477.298462,441.298279 442.209991,476.335480 407.133942,511.385132 
	C406.675659,511.843048 406.374512,512.458252 406.000000,513.000000 
z"/>
<path fill="#000000" opacity="1.000000" stroke="none" 
	d="
M1.000000,116.000000 
	C1.000000,112.307091 1.000000,108.614182 1.307039,104.330597 
	C35.368725,70.034477 69.124359,36.330040 102.867554,2.613151 
	C103.325302,2.155757 103.625999,1.541201 104.000000,0.999998 
	C107.692909,1.000000 111.385818,1.000000 115.582375,1.350170 
	C115.284737,2.739415 114.587021,3.881957 113.667229,4.802643 
	C77.465614,41.039597 41.250347,77.262939 4.993149,113.444252 
	C3.900275,114.534843 2.341535,115.158592 1.000000,116.000000 
z"/>
<path fill="#000000" opacity="1.000000" stroke="none" 
	d="
M513.000000,414.000000 
	C513.000000,417.692902 513.000000,421.385834 512.692993,425.669373 
	C483.965729,454.630920 455.544312,483.000549 427.135742,511.383057 
	C426.676849,511.841614 426.375092,512.457520 426.000000,513.000000 
	C422.307098,513.000000 418.614166,513.000000 414.417664,512.649841 
	C414.714111,511.261810 415.410767,510.120605 416.329285,509.201019 
	C447.199768,478.294250 478.083710,447.400940 509.011444,416.551483 
	C510.103119,415.462555 511.659973,414.839966 513.000000,414.000000 
z"/>
<path fill="#000000" opacity="1.000000" stroke="none" 
	d="
M0.999999,96.000000 
	C1.000000,92.307091 1.000000,88.614182 1.307038,84.330589 
	C28.701532,56.701733 55.790234,29.664803 82.865959,2.614885 
	C83.324295,2.156988 83.625481,1.541792 84.000000,1.000000 
	C87.692909,1.000000 91.385818,1.000000 95.582375,1.350170 
	C95.401146,2.622527 94.819611,3.647926 94.016495,4.452008 
	C64.248688,34.255501 34.467476,64.045631 4.643367,93.792747 
	C3.666697,94.766899 2.224950,95.274773 0.999999,96.000000 
z"/>
<path fill="#444440" opacity="1.000000" stroke="none" 
	d="
M346.444153,513.000000 
	C346.846222,511.988800 347.620483,510.905670 348.549011,509.976746 
	C402.541443,455.959045 456.546295,401.953766 510.553528,347.950867 
	C511.140747,347.363678 511.774200,346.822845 512.693054,346.130188 
	C513.000000,348.370575 513.000000,350.741119 513.000000,353.555847 
	C511.656586,354.843292 510.095337,355.468445 509.001038,356.561218 
	C458.082581,407.407898 407.202911,458.293427 356.337158,509.192871 
	C355.415771,510.114868 354.716736,511.259094 353.956970,512.649841 
	C351.629425,513.000000 349.258881,513.000000 346.444153,513.000000 
z"/>
<path fill="#444440" opacity="1.000000" stroke="none" 
	d="
M0.999999,156.444168 
	C2.342560,155.157547 3.902903,154.533203 4.996380,153.441315 
	C54.583183,103.926582 104.130989,54.372807 153.664886,4.805128 
	C154.585587,3.883788 155.283920,2.740221 156.042999,1.350171 
	C158.370560,1.000000 160.741104,1.000000 163.555832,1.000000 
	C163.152283,2.012468 162.376434,3.096789 161.446548,4.027127 
	C108.789856,56.709328 56.120579,109.378937 3.449021,162.046280 
	C2.860944,162.634323 2.226614,163.176102 1.306934,163.869736 
	C1.000000,161.629440 1.000000,159.258896 0.999999,156.444168 
z"/>
<path fill="#000000" opacity="1.000000" stroke="none" 
	d="
M504.000000,0.999996 
	C506.889832,1.000000 509.779663,1.000000 513.000000,1.000000 
	C513.000000,2.327767 513.000000,3.665995 512.693115,5.632477 
	C485.396057,33.204727 458.404022,60.146935 431.427612,87.104767 
	C430.854645,87.677330 430.461334,88.429619 429.663422,88.990814 
	C427.199249,86.593735 425.055878,84.303917 423.229370,81.894577 
	C450.100739,55.266476 476.656036,28.758757 503.200073,2.239738 
	C503.540161,1.900000 503.736542,1.416429 504.000000,0.999996 
z"/>
<path fill="#000000" opacity="1.000000" stroke="none" 
	d="
M6.000010,513.000000 
	C4.392854,513.000000 2.785708,513.000000 1.000000,513.000000 
	C1.000000,510.328674 1.000000,507.655396 1.306966,504.360901 
	C27.945320,477.454590 54.278606,451.171387 80.595657,424.871948 
	C81.166084,424.301880 81.550293,423.545502 82.339584,422.992798 
	C84.810661,425.402130 86.963547,427.694733 88.795929,430.101624 
	C61.247971,457.392944 34.019688,484.569122 6.802696,511.756622 
	C6.461527,512.097412 6.264386,512.582336 6.000010,513.000000 
z"/>
<path fill="#444440" opacity="1.000000" stroke="none" 
	d="
M513.000000,373.555847 
	C511.658386,374.841522 510.099121,375.465057 509.006470,376.555908 
	C464.750702,420.738403 420.534882,464.960876 376.332886,509.197174 
	C375.412964,510.117798 374.715332,511.260559 373.956970,512.649841 
	C371.629425,513.000000 369.258881,513.000000 366.444153,513.000000 
	C366.846924,511.988007 367.621887,510.904114 368.551086,509.974396 
	C415.875427,462.624329 463.212555,415.287079 510.551880,367.951996 
	C511.139618,367.364349 511.773590,366.823029 512.692993,366.130035 
	C513.000000,368.370575 513.000000,370.741119 513.000000,373.555847 
z"/>
<path fill="#000000" opacity="1.000000" stroke="none" 
	d="
M513.000000,13.999998 
	C513.000000,17.692909 513.000000,21.385818 512.693054,25.669565 
	C489.367615,49.230335 466.353729,72.204895 443.319366,95.158928 
	C441.922180,96.551254 440.362457,97.780495 438.573273,98.946655 
	C436.470612,96.545502 434.673004,94.283348 433.196228,91.905594 
	C458.437042,66.933777 483.345734,42.066120 508.308807,17.253195 
	C509.637573,15.932414 511.425720,15.073771 513.000000,13.999998 
z"/>
<path fill="#000000" opacity="1.000000" stroke="none" 
	d="
M26.000000,513.000000 
	C22.307091,513.000000 18.614182,513.000000 14.417317,512.649780 
	C15.182944,510.792175 16.349997,509.182343 17.737360,507.792480 
	C41.200855,484.286438 64.697113,460.813110 88.162910,437.309357 
	C89.552330,435.917694 90.745369,434.329987 92.352753,432.965668 
	C94.813026,435.025818 96.950340,436.953796 98.953064,439.197235 
	C75.857224,462.529999 52.891693,485.543030 29.945251,508.575073 
	C28.552685,509.972839 27.311583,511.521545 26.000000,513.000000 
z"/>
<path fill="#444440" opacity="1.000000" stroke="none" 
	d="
M1.000000,136.444168 
	C2.343663,135.156448 3.904863,134.530823 4.999624,133.437943 
	C47.918575,90.592697 90.797287,47.707130 133.662186,4.807781 
	C134.583740,3.885487 135.283020,2.741115 136.042999,1.350170 
	C138.370560,1.000000 140.741104,1.000000 143.555832,1.000001 
	C143.153809,2.011218 142.379593,3.094348 141.451126,4.023338 
	C95.458992,50.041363 49.453907,96.046432 3.446651,142.049332 
	C2.859432,142.636490 2.225959,143.177414 1.307040,143.869965 
	C1.000000,141.629440 1.000000,139.258896 1.000000,136.444168 
z"/>
<path fill="#000000" opacity="1.000000" stroke="none" 
	d="
M0.999995,496.000000 
	C1.000000,492.307098 1.000000,488.614166 1.307037,484.330597 
	C23.955894,461.446655 46.293018,439.148682 68.650734,416.871338 
	C70.049652,415.477509 71.609894,414.245575 73.398155,413.064880 
	C75.496704,415.088318 77.292168,416.985168 78.953018,419.197449 
	C53.986614,444.400330 29.162350,469.295319 4.291374,494.143524 
	C3.432889,495.001221 2.107665,495.391724 0.999995,496.000000 
z"/>
<path fill="#000000" opacity="1.000000" stroke="none" 
	d="
M484.000000,1.000000 
	C487.692902,1.000000 491.385834,1.000000 495.583008,1.350187 
	C495.284241,2.741183 494.584381,3.884964 493.663116,4.807724 
	C469.650177,28.859722 445.616913,52.891434 421.570984,76.910454 
	C420.759094,77.721413 419.779572,78.364578 418.578735,78.951935 
	C416.498688,76.909836 414.718079,75.001762 413.069275,72.779449 
	C435.487427,50.123802 457.778290,27.786814 480.049805,5.430544 
	C481.444092,4.030951 482.686768,2.480339 484.000000,1.000000 
z"/>
<path fill="#000000" opacity="1.000000" stroke="none" 
	d="
M446.000000,513.000000 
	C442.307098,513.000000 438.614166,513.000000 434.417664,512.649841 
	C434.597809,511.378632 435.178436,510.354553 435.980347,509.551453 
	C460.416687,485.078094 484.866150,460.617828 509.361084,436.203156 
	C510.336731,435.230682 511.776489,434.723816 513.000000,434.000000 
	C513.000000,437.692902 513.000000,441.385834 512.692993,445.669403 
	C492.863129,465.734253 473.330353,485.198486 453.829041,504.694153 
	C451.139526,507.382904 448.605835,510.227539 446.000000,513.000000 
z"/>
<path fill="#000000" opacity="1.000000" stroke="none" 
	d="
M64.000000,1.000000 
	C67.692909,1.000000 71.385818,1.000000 75.582375,1.350172 
	C75.403564,2.620109 74.824203,3.642808 74.023636,4.444665 
	C50.917828,27.587881 27.798952,50.718098 4.633821,73.801880 
	C3.659704,74.772575 2.221827,75.277885 1.000000,76.000000 
	C1.000000,72.307091 1.000000,68.614182 1.307039,64.330589 
	C18.284821,47.117840 34.973175,30.513372 51.614025,13.861432 
	C55.820549,9.652102 59.875435,5.291233 64.000000,1.000000 
z"/>
<path fill="#000000" opacity="1.000000" stroke="none" 
	d="
M46.000000,513.000000 
	C42.307091,513.000000 38.614182,513.000000 34.417282,512.649841 
	C35.184666,510.790405 36.353840,509.179138 37.742752,507.787170 
	C58.295494,487.189240 78.882347,466.625305 99.440430,446.032684 
	C100.717606,444.753448 101.822929,443.302612 103.333481,442.034729 
	C105.800842,444.050873 107.942932,445.963898 109.952019,448.193207 
	C92.330330,466.055756 74.828140,483.588562 57.363472,501.158661 
	C53.507442,505.037964 49.784328,509.049408 46.000000,513.000000 
z"/>
<path fill="#000000" opacity="1.000000" stroke="none" 
	d="
M513.000000,34.000004 
	C513.000000,37.692909 513.000000,41.385818 512.693115,45.669609 
	C492.488342,66.109940 472.596283,85.965149 452.681274,105.797356 
	C451.162598,107.309708 449.481445,108.658966 447.565796,109.939819 
	C445.480713,107.532654 443.705627,105.269714 442.245758,102.886368 
	C464.463898,80.920555 486.353851,59.062134 508.301392,37.261719 
	C509.633392,35.938675 511.423218,35.076580 513.000000,34.000004 
z"/>
<path fill="#444440" opacity="1.000000" stroke="none" 
	d="
M513.000000,393.555847 
	C511.657288,394.842590 510.097351,395.467499 509.003326,396.559326 
	C471.415131,434.072083 433.868500,471.626465 396.335541,509.194519 
	C395.414795,510.116119 394.716217,511.259674 393.957001,512.649841 
	C391.629425,513.000000 389.258881,513.000000 386.444153,513.000000 
	C386.374084,512.458740 386.674835,511.844055 387.132629,511.386536 
	C428.875977,469.669952 470.631348,427.965393 512.692993,386.130005 
	C513.000000,388.370575 513.000000,390.741119 513.000000,393.555847 
z"/>
<path fill="#000000" opacity="1.000000" stroke="none" 
	d="
M464.000000,0.999995 
	C467.692902,1.000000 471.385834,1.000000 475.582367,1.350177 
	C474.812225,3.212024 473.640594,4.825614 472.249359,6.220069 
	C452.368408,26.146729 432.452606,46.038639 412.566284,65.959915 
	C411.286987,67.241455 410.179413,68.694405 408.660767,69.959641 
	C405.863922,67.903336 403.398346,65.955002 401.247803,63.886086 
	C418.248016,47.137550 434.951019,30.527426 451.605927,13.869231 
	C455.816040,9.658256 459.872772,5.293878 464.000000,0.999995 
z"/>
<path fill="#000000" opacity="1.000000" stroke="none" 
	d="
M1.000001,476.000000 
	C1.000000,472.307098 1.000000,468.614166 1.306947,464.330383 
	C21.112406,444.289764 40.616741,424.845825 60.097176,405.377960 
	C61.490299,403.985718 62.708534,402.418457 64.339119,401.049011 
	C66.471054,403.774658 68.271942,406.383820 69.757141,409.112732 
	C48.206936,430.408997 26.985779,451.598938 5.706141,472.729980 
	C4.371307,474.055511 2.579309,474.920654 1.000001,476.000000 
z"/>
<path fill="#444440" opacity="1.000000" stroke="none" 
	d="
M1.000000,116.444168 
	C2.341535,115.158592 3.900275,114.534843 4.993149,113.444252 
	C41.250347,77.262939 77.465614,41.039597 113.667229,4.802643 
	C114.587021,3.881957 115.284737,2.739415 116.043015,1.350170 
	C118.370560,1.000000 120.741112,1.000000 123.555832,1.000001 
	C123.625084,1.542241 123.323517,2.157881 122.864822,2.616282 
	C82.455696,42.998619 42.034470,83.368843 1.307038,123.869949 
	C1.000000,121.629440 1.000000,119.258888 1.000000,116.444168 
z"/>
<path fill="#000000" opacity="1.000000" stroke="none" 
	d="
M513.000000,53.999992 
	C513.000000,57.692909 513.000000,61.385818 512.692993,65.669449 
	C496.149292,82.448280 479.900208,98.623970 463.689789,114.838333 
	C461.357300,117.171402 459.210968,119.690605 456.650208,122.004074 
	C454.522919,119.258789 452.723907,116.633110 451.240784,113.887741 
	C470.465027,94.917763 489.358551,76.052498 508.313690,57.249344 
	C509.642548,55.931118 511.427246,55.072395 513.000000,53.999992 
z"/>
<path fill="#000000" opacity="1.000000" stroke="none" 
	d="
M66.000000,513.000000 
	C62.307091,513.000000 58.614182,513.000000 54.417072,512.649841 
	C55.062820,510.911804 56.110840,509.422241 57.378151,508.151398 
	C74.000687,491.482574 90.665016,474.855377 107.287422,458.186401 
	C109.613594,455.853760 111.772125,453.353882 114.342773,451.048706 
	C117.173203,453.100159 119.669106,455.034302 121.839920,457.079834 
	C109.730240,468.907166 97.910133,480.587616 86.174652,492.352478 
	C79.379387,499.164795 72.720352,506.112976 66.000000,513.000000 
z"/>
<path fill="#000000" opacity="1.000000" stroke="none" 
	d="
M444.000000,0.999999 
	C447.692902,1.000000 451.385834,1.000000 455.582367,1.350173 
	C454.936829,3.087462 453.889221,4.575856 452.622955,5.846243 
	C437.768280,20.749119 422.897705,35.636276 407.989685,50.485767 
	C404.363770,54.097439 400.586060,57.556736 396.567078,60.941956 
	C394.142487,59.239754 392.028961,57.681671 390.048401,55.807243 
	C400.943665,44.671127 411.729340,33.874535 422.459991,23.023485 
	C429.680298,15.722173 436.822723,8.343855 444.000000,0.999999 
z"/>
<path fill="#000000" opacity="1.000000" stroke="none" 
	d="
M0.999999,456.000000 
	C1.000000,452.307098 1.000000,448.614166 1.307036,444.330597 
	C14.544547,430.858093 27.452703,417.953766 40.416489,405.105560 
	C45.589252,399.978882 50.884853,394.976135 56.431572,390.071533 
	C58.188148,392.444916 59.637680,394.663727 60.952705,397.197937 
	C41.981319,416.405914 23.154253,435.308258 4.275686,454.159027 
	C3.422093,455.011353 2.102518,455.396973 0.999999,456.000000 
z"/>
<path fill="#444440" opacity="1.000000" stroke="none" 
	d="
M513.000000,413.555847 
	C511.659973,414.839966 510.103119,415.462555 509.011444,416.551483 
	C478.083710,447.400940 447.199768,478.294250 416.329285,509.201019 
	C415.410767,510.120605 414.714111,511.261810 413.957031,512.649841 
	C411.629425,513.000000 409.258881,513.000000 406.444153,513.000000 
	C406.374512,512.458252 406.675659,511.843048 407.133942,511.385132 
	C442.209991,476.335480 477.298462,441.298279 512.692993,406.130005 
	C513.000000,408.370575 513.000000,410.741119 513.000000,413.555847 
z"/>
<path fill="#444440" opacity="1.000000" stroke="none" 
	d="
M0.999999,96.444168 
	C2.224950,95.274773 3.666697,94.766899 4.643367,93.792747 
	C34.467476,64.045631 64.248688,34.255501 94.016495,4.452008 
	C94.819611,3.647926 95.401146,2.622527 96.043015,1.350170 
	C98.370560,1.000000 100.741112,1.000000 103.555832,0.999998 
	C103.625999,1.541201 103.325302,2.155757 102.867554,2.613151 
	C69.124359,36.330040 35.368725,70.034477 1.307039,103.869957 
	C1.000000,101.629440 1.000000,99.258888 0.999999,96.444168 
z"/>
<path fill="#000000" opacity="1.000000" stroke="none" 
	d="
M466.000000,513.000000 
	C462.307098,513.000000 458.614166,513.000000 454.417603,512.649841 
	C454.365479,511.614471 454.715363,510.827881 455.283234,510.258820 
	C473.401794,492.101044 491.531281,473.954163 509.709686,455.856415 
	C510.569885,455.000000 511.892670,454.608185 513.000000,454.000000 
	C513.000000,457.692902 513.000000,461.385834 512.692993,465.669373 
	C506.949127,471.648224 501.469452,476.993988 496.084717,482.433685 
	C486.027374,492.593658 476.025177,502.808197 466.000000,513.000000 
z"/>
<path fill="#000000" opacity="1.000000" stroke="none" 
	d="
M513.000000,74.000008 
	C513.000000,77.692909 513.000000,81.385818 512.692993,85.669373 
	C497.215210,101.386795 482.034485,116.503555 466.899109,131.665573 
	C466.007050,132.559219 465.479889,133.817108 464.505981,134.644882 
	C462.480957,131.589966 460.732849,128.795654 459.293640,125.873421 
	C475.827423,109.571159 492.035095,93.379410 508.309296,77.254829 
	C509.640747,75.935623 511.425751,75.074173 513.000000,74.000008 
z"/>
<path fill="#000000" opacity="1.000000" stroke="none" 
	d="
M86.000000,513.000000 
	C82.307091,513.000000 78.614182,513.000000 74.417618,512.649841 
	C75.066010,510.909698 76.117722,509.419891 77.385841,508.145386 
	C88.278099,497.198486 99.239075,486.319855 110.116501,475.358276 
	C115.482002,469.951324 120.714722,464.412598 126.345093,459.045715 
	C129.268906,460.866486 131.855148,462.575043 134.113617,464.557922 
	C127.411789,471.166931 120.996574,477.460907 114.673271,483.845886 
	C105.081985,493.530731 95.554543,503.278778 86.000000,513.000000 
z"/>
<path fill="#000000" opacity="1.000000" stroke="none" 
	d="
M1.000000,56.000000 
	C1.000000,52.307091 1.000000,48.614182 1.307039,44.330589 
	C15.742719,29.493271 29.871359,15.246636 44.000000,1.000000 
	C47.692909,1.000000 51.385818,1.000000 55.582375,1.350170 
	C55.635693,2.384302 55.286900,3.169553 54.720291,3.737504 
	C37.932217,20.565338 21.133493,37.382622 4.284480,54.149353 
	C3.425947,55.003689 2.105423,55.393764 1.000000,56.000000 
z"/>
<path fill="#000000" opacity="1.000000" stroke="none" 
	d="
M424.000000,1.000008 
	C427.692902,1.000000 431.385834,1.000000 435.582581,1.350180 
	C429.067780,8.956840 422.144012,16.308199 415.007568,23.446909 
	C405.047943,33.409683 394.929474,43.213608 384.562561,52.936764 
	C381.805176,51.196171 379.364136,49.604336 377.238831,47.891644 
	C382.765350,42.617798 388.021362,37.509571 393.177429,32.302380 
	C403.480621,21.896967 413.729004,11.437288 424.000000,1.000008 
z"/>
<path fill="#000000" opacity="1.000000" stroke="none" 
	d="
M1.000002,436.000000 
	C1.000000,432.307098 1.000000,428.614166 1.306959,424.330444 
	C9.647406,415.754639 17.725903,407.814270 25.701298,399.771667 
	C33.194267,392.215637 40.578346,384.551605 48.346878,377.058105 
	C50.151546,379.748352 51.619675,382.315552 52.952835,385.197968 
	C36.649357,401.737213 20.492264,417.972687 4.280268,434.153137 
	C3.424683,435.007050 2.104111,435.395081 1.000002,436.000000 
z"/>
<path fill="#444440" opacity="1.000000" stroke="none" 
	d="
M513.000000,433.555847 
	C511.776489,434.723816 510.336731,435.230682 509.361084,436.203156 
	C484.866150,460.617828 460.416687,485.078094 435.980347,509.551453 
	C435.178436,510.354553 434.597809,511.378632 433.957031,512.649841 
	C431.629425,513.000000 429.258881,513.000000 426.444153,513.000000 
	C426.375092,512.457520 426.676849,511.841614 427.135742,511.383057 
	C455.544312,483.000549 483.965729,454.630920 512.692993,426.130005 
	C513.000000,428.370575 513.000000,430.741119 513.000000,433.555847 
z"/>
<path fill="#444440" opacity="1.000000" stroke="none" 
	d="
M513.000000,13.555834 
	C511.425720,15.073771 509.637573,15.932414 508.308807,17.253195 
	C483.345734,42.066120 458.437042,66.933777 432.882812,91.863647 
	C431.493805,90.990875 430.739014,90.044472 429.984192,89.098068 
	C430.461334,88.429619 430.854645,87.677330 431.427612,87.104767 
	C458.404022,60.146935 485.396057,33.204727 512.693115,6.130365 
	C513.000000,8.370558 513.000000,10.741115 513.000000,13.555834 
z"/>
<path fill="#444440" opacity="1.000000" stroke="none" 
	d="
M92.029808,432.833496 
	C90.745369,434.329987 89.552330,435.917694 88.162910,437.309357 
	C64.697113,460.813110 41.200855,484.286438 17.737360,507.792480 
	C16.349997,509.182343 15.182944,510.792175 13.956681,512.649780 
	C11.629442,513.000000 9.258885,513.000000 6.444174,513.000000 
	C6.264386,512.582336 6.461527,512.097412 6.802696,511.756622 
	C34.019688,484.569122 61.247971,457.392944 89.109116,430.148926 
	C90.505150,430.999176 91.267487,431.916351 92.029808,432.833496 
z"/>
<path fill="#000000" opacity="1.000000" stroke="none" 
	d="
M513.000000,94.000000 
	C513.000000,97.692909 513.000000,101.385818 512.692993,105.669388 
	C510.831604,107.765778 509.264160,109.258240 507.725037,110.779327 
	C495.531372,122.829918 483.343170,134.885986 470.995850,146.621185 
	C469.529572,143.907211 468.220764,141.512436 467.046936,138.802399 
	C481.350800,124.262756 495.506683,110.025322 509.720764,95.846237 
	C510.576355,94.992744 511.896179,94.604645 513.000000,94.000000 
z"/>
<path fill="#000000" opacity="1.000000" stroke="none" 
	d="
M106.000000,513.000000 
	C102.307091,513.000000 98.614182,513.000000 94.417625,512.649841 
	C108.983253,497.171143 124.052521,482.042572 139.439758,467.075256 
	C142.320404,468.585510 144.883118,469.934509 147.117355,471.557312 
	C133.192596,485.554108 119.596306,499.277069 106.000000,513.000000 
z"/>
<path fill="#444440" opacity="1.000000" stroke="none" 
	d="
M418.878204,79.085953 
	C419.779572,78.364578 420.759094,77.721413 421.570984,76.910454 
	C445.616913,52.891434 469.650177,28.859722 493.663116,4.807724 
	C494.584381,3.884964 495.284241,2.741183 496.043640,1.350187 
	C498.370575,1.000000 500.741119,1.000000 503.555847,0.999996 
	C503.736542,1.416429 503.540161,1.900000 503.200073,2.239738 
	C476.656036,28.758757 450.100739,55.266476 422.909241,81.855453 
	C421.140900,80.985886 420.009552,80.035919 418.878204,79.085953 
z"/>
<path fill="#444440" opacity="1.000000" stroke="none" 
	d="
M0.999995,496.444153 
	C2.107665,495.391724 3.432889,495.001221 4.291374,494.143524 
	C29.162350,469.295319 53.986614,444.400330 79.245285,419.338196 
	C80.455231,420.401001 81.238304,421.638519 82.021385,422.876038 
	C81.550293,423.545502 81.166084,424.301880 80.595657,424.871948 
	C54.278606,451.171387 27.945320,477.454590 1.306966,503.869843 
	C1.000000,501.629425 1.000000,499.258881 0.999995,496.444153 
z"/>
<path fill="#444440" opacity="1.000000" stroke="none" 
	d="
M1.000000,76.444168 
	C2.221827,75.277885 3.659704,74.772575 4.633821,73.801880 
	C27.798952,50.718098 50.917828,27.587881 74.023636,4.444665 
	C74.824203,3.642808 75.403564,2.620109 76.043015,1.350172 
	C78.370560,1.000000 80.741112,1.000000 83.555832,1.000000 
	C83.625481,1.541792 83.324295,2.156988 82.865959,2.614885 
	C55.790234,29.664803 28.701532,56.701733 1.307038,83.869949 
	C1.000000,81.629440 1.000000,79.258888 1.000000,76.444168 
z"/>
<path fill="#000000" opacity="1.000000" stroke="none" 
	d="
M1.000001,416.000000 
	C1.000000,412.307098 1.000000,408.614166 1.307036,404.330597 
	C5.146667,400.255981 8.721473,396.813660 12.203780,393.280182 
	C21.827251,383.515381 31.412121,373.712494 41.351875,364.053741 
	C43.120193,367.122284 44.548878,370.061768 45.673462,373.134949 
	C32.158169,386.434021 18.968004,399.620697 5.703475,412.732117 
	C4.365862,414.054321 2.578603,414.921600 1.000001,416.000000 
z"/>
<path fill="#000000" opacity="1.000000" stroke="none" 
	d="
M404.000000,1.000001 
	C407.692902,1.000000 411.385834,1.000000 415.582977,1.350179 
	C414.815063,3.210402 413.637451,4.813516 412.256104,6.216039 
	C399.191986,19.480700 386.093201,32.711185 372.651306,45.884201 
	C369.510529,44.214691 366.722839,42.612518 364.249634,40.888336 
	C377.709412,27.510883 390.854706,14.255443 404.000000,1.000001 
z"/>
<path fill="#000000" opacity="1.000000" stroke="none" 
	d="
M184.000000,1.000004 
	C187.692902,1.000000 191.385818,1.000000 195.583557,1.350194 
	C187.169342,10.857325 178.225342,19.990238 169.358200,29.197180 
	C168.032715,30.573477 167.067993,32.297253 165.708374,34.143433 
	C157.703522,38.002739 149.926682,41.578892 142.040710,44.808586 
	C143.157791,42.937119 144.264267,41.294441 145.628906,39.905403 
	C158.394043,26.912148 171.203430,13.962370 184.000000,1.000004 
z"/>
<path fill="#000000" opacity="1.000000" stroke="none" 
	d="
M0.999998,196.000000 
	C1.000000,192.307098 1.000000,188.614182 1.306824,184.330154 
	C14.539972,170.861496 27.441256,157.958588 40.431488,145.145859 
	C41.726170,143.868866 43.562351,143.140900 45.073669,142.518250 
	C41.287361,150.564072 37.574604,158.249756 33.517735,165.931702 
	C24.026848,174.874741 14.908292,183.850784 5.702367,192.736313 
	C4.347281,194.044235 2.577764,194.922775 0.999998,196.000000 
z"/>
<path fill="#444440" opacity="1.000000" stroke="none" 
	d="
M513.000000,33.555840 
	C511.423218,35.076580 509.633392,35.938675 508.301392,37.261719 
	C486.353851,59.062134 464.463898,80.920555 441.942261,102.787834 
	C440.508423,101.568344 439.693390,100.326988 438.878357,99.085632 
	C440.362457,97.780495 441.922180,96.551254 443.319366,95.158928 
	C466.353729,72.204895 489.367615,49.230335 512.693054,26.130201 
	C513.000000,28.370558 513.000000,30.741114 513.000000,33.555840 
z"/>
<path fill="#444440" opacity="1.000000" stroke="none" 
	d="
M103.008209,441.931641 
	C101.822929,443.302612 100.717606,444.753448 99.440430,446.032684 
	C78.882347,466.625305 58.295494,487.189240 37.742752,507.787170 
	C36.353840,509.179138 35.184666,510.790405 33.956646,512.649841 
	C31.629442,513.000000 29.258884,513.000000 26.444164,513.000000 
	C27.311583,511.521545 28.552685,509.972839 29.945251,508.575073 
	C52.891693,485.543030 75.857224,462.529999 99.252663,439.309509 
	C100.793976,440.048096 101.901093,440.989868 103.008209,441.931641 
z"/>
<path fill="#444440" opacity="1.000000" stroke="none" 
	d="
M408.992004,70.067635 
	C410.179413,68.694405 411.286987,67.241455 412.566284,65.959915 
	C432.452606,46.038639 452.368408,26.146729 472.249359,6.220069 
	C473.640594,4.825614 474.812225,3.212024 476.042999,1.350177 
	C478.370575,1.000000 480.741119,1.000000 483.555847,1.000000 
	C482.686768,2.480339 481.444092,4.030951 480.049805,5.430544 
	C457.778290,27.786814 435.487427,50.123802 412.741943,72.718231 
	C411.185913,72.003387 410.088959,71.035515 408.992004,70.067635 
z"/>
<path fill="#444440" opacity="1.000000" stroke="none" 
	d="
M1.000001,476.444153 
	C2.579309,474.920654 4.371307,474.055511 5.706141,472.729980 
	C26.985779,451.598938 48.206936,430.408997 70.072098,409.212402 
	C71.500198,410.440948 72.297638,411.689636 73.095078,412.938324 
	C71.609894,414.245575 70.049652,415.477509 68.650734,416.871338 
	C46.293018,439.148682 23.955894,461.446655 1.307037,483.869965 
	C1.000000,481.629425 1.000000,479.258881 1.000001,476.444153 
z"/>
<path fill="#000000" opacity="1.000000" stroke="none" 
	d="
M126.000000,513.000000 
	C122.307091,513.000000 118.614182,513.000000 114.417618,512.649841 
	C126.648567,499.503998 139.383163,486.708313 152.488068,473.958069 
	C155.596939,475.331696 158.335510,476.659882 160.758545,478.109009 
	C148.962006,489.819946 137.481003,501.409973 126.000000,513.000000 
z"/>
<path fill="#000000" opacity="1.000000" stroke="none" 
	d="
M513.000000,114.000000 
	C513.000000,117.692909 513.000000,121.385818 512.692932,125.669403 
	C500.920074,137.864029 489.454254,149.467987 477.639404,160.932693 
	C476.163971,157.900696 475.037598,155.007950 474.046783,151.800323 
	C486.016785,139.595886 497.835693,127.690773 509.718109,115.849350 
	C510.575226,114.995224 511.895233,114.605598 513.000000,114.000000 
z"/>
<path fill="#000000" opacity="1.000000" stroke="none" 
	d="
M513.000000,314.000000 
	C513.000000,317.692902 513.000000,321.385834 512.693115,325.669647 
	C500.788849,337.808899 489.219147,349.385315 477.555237,360.866028 
	C476.263428,362.137543 474.433807,362.862640 472.926910,363.479523 
	C476.326721,355.741730 479.653198,348.365601 483.330383,341.038452 
	C491.880127,333.132294 500.048798,325.145325 508.308411,317.253571 
	C509.667633,315.954865 511.426056,315.073975 513.000000,314.000000 
z"/>
<path fill="#000000" opacity="1.000000" stroke="none" 
	d="
M326.000000,513.000000 
	C322.307098,513.000000 318.614166,513.000000 314.417664,512.649841 
	C321.874634,504.101105 329.867859,495.933685 337.763214,487.672729 
	C339.058411,486.317566 339.923035,484.550812 341.180847,482.662842 
	C348.866455,479.182648 356.357910,476.013947 363.958679,473.191589 
	C362.846619,475.058228 361.743774,476.694702 360.385315,478.080566 
	C348.950073,489.746368 337.467987,501.366272 326.000000,513.000000 
z"/>
<path fill="#000000" opacity="1.000000" stroke="none" 
	d="
M0.999999,396.000000 
	C1.000000,392.307098 1.000000,388.614166 1.306943,384.330383 
	C3.050136,382.351471 4.495275,380.972504 5.921172,379.573914 
	C15.658103,370.023743 25.391018,360.469452 35.448444,351.090088 
	C36.872894,354.173706 37.974113,357.083710 38.759270,360.112823 
	C27.531963,371.084747 16.645632,381.962891 5.677126,392.757507 
	C4.344803,394.068726 2.569823,394.930115 0.999999,396.000000 
z"/>
<path fill="#000000" opacity="1.000000" stroke="none" 
	d="
M384.000000,1.000000 
	C387.692902,1.000000 391.385834,1.000000 395.582367,1.350169 
	C394.705139,3.318999 393.413300,5.024712 391.929138,6.542364 
	C381.305481,17.405989 370.642731,28.231361 359.615234,39.035229 
	C356.463898,37.709026 353.689697,36.416477 351.048035,34.807339 
	C352.562958,33.050682 353.931427,31.596926 355.330048,30.172764 
	C364.883148,20.445034 374.442596,10.723519 384.000000,1.000000 
z"/>
<path fill="#444440" opacity="1.000000" stroke="none" 
	d="
M513.000000,453.555847 
	C511.892670,454.608185 510.569885,455.000000 509.709686,455.856415 
	C491.531281,473.954163 473.401794,492.101044 455.283234,510.258820 
	C454.715363,510.827881 454.365479,511.614471 453.956970,512.649841 
	C451.629425,513.000000 449.258881,513.000000 446.444153,513.000000 
	C448.605835,510.227539 451.139526,507.382904 453.829041,504.694153 
	C473.330353,485.198486 492.863129,465.734253 512.692993,446.130035 
	C513.000000,448.370575 513.000000,450.741119 513.000000,453.555847 
z"/>
<path fill="#444440" opacity="1.000000" stroke="none" 
	d="
M114.008255,450.931396 
	C111.772125,453.353882 109.613594,455.853760 107.287422,458.186401 
	C90.665016,474.855377 74.000687,491.482574 57.378151,508.151398 
	C56.110840,509.422241 55.062820,510.911804 53.956436,512.649841 
	C51.629444,513.000000 49.258884,513.000000 46.444168,513.000000 
	C49.784328,509.049408 53.507442,505.037964 57.363472,501.158661 
	C74.828140,483.588562 92.330330,466.055756 110.260895,448.290833 
	C111.804611,449.025208 112.906441,449.978333 114.008255,450.931396 
z"/>
<path fill="#444440" opacity="1.000000" stroke="none" 
	d="
M513.000000,53.555832 
	C511.427246,55.072395 509.642548,55.931118 508.313690,57.249344 
	C489.358551,76.052498 470.465027,94.917763 450.932495,113.792053 
	C449.497498,112.572044 448.686646,111.328026 447.875793,110.084023 
	C449.481445,108.658966 451.162598,107.309708 452.681274,105.797356 
	C472.596283,85.965149 492.488342,66.109940 512.693115,46.130249 
	C513.000000,48.370556 513.000000,50.741116 513.000000,53.555832 
z"/>
<path fill="#000000" opacity="1.000000" stroke="none" 
	d="
M486.000000,513.000000 
	C482.307098,513.000000 478.614166,513.000000 474.417633,512.649841 
	C474.248840,511.738342 474.485352,511.079041 474.932770,510.629852 
	C486.623871,498.893005 498.323425,487.164429 510.078064,475.491302 
	C510.816956,474.757538 512.015381,474.486389 513.000000,474.000000 
	C513.000000,477.692902 513.000000,481.385834 512.692993,485.669373 
	C503.590607,495.173370 494.795319,504.086670 486.000000,513.000000 
z"/>
<path fill="#444440" opacity="1.000000" stroke="none" 
	d="
M0.999999,456.444153 
	C2.102518,455.396973 3.422093,455.011353 4.275686,454.159027 
	C23.154253,435.308258 41.981319,416.405914 61.240593,397.338440 
	C62.444679,398.419830 63.226372,399.676178 64.008072,400.932556 
	C62.708534,402.418457 61.490299,403.985718 60.097176,405.377960 
	C40.616741,424.845825 21.112406,444.289764 1.306947,463.869751 
	C1.000000,461.629425 1.000000,459.258881 0.999999,456.444153 
z"/>
<path fill="#444440" opacity="1.000000" stroke="none" 
	d="
M396.878143,61.086075 
	C400.586060,57.556736 404.363770,54.097439 407.989685,50.485767 
	C422.897705,35.636276 437.768280,20.749119 452.622955,5.846243 
	C453.889221,4.575856 454.936829,3.087462 456.042999,1.350173 
	C458.370575,1.000000 460.741119,1.000000 463.555847,0.999995 
	C459.872772,5.293878 455.816040,9.658256 451.605927,13.869231 
	C434.951019,30.527426 418.248016,47.137550 400.939148,63.802654 
	C399.169708,62.921898 398.023926,62.003986 396.878143,61.086075 
z"/>
<path fill="#444440" opacity="1.000000" stroke="none" 
	d="
M1.000000,56.444164 
	C2.105423,55.393764 3.425947,55.003689 4.284480,54.149353 
	C21.133493,37.382622 37.932217,20.565338 54.720291,3.737504 
	C55.286900,3.169553 55.635693,2.384302 56.043007,1.350170 
	C58.370556,1.000000 60.741116,1.000000 63.555836,1.000000 
	C59.875435,5.291233 55.820549,9.652102 51.614025,13.861432 
	C34.973175,30.513372 18.284821,47.117840 1.307039,63.869957 
	C1.000000,61.629444 1.000000,59.258884 1.000000,56.444164 
z"/>
<path fill="#000000" opacity="1.000000" stroke="none" 
	d="
M146.000000,513.000000 
	C142.307098,513.000000 138.614182,513.000000 134.417633,512.649841 
	C135.294037,510.681854 136.589996,508.982391 138.067932,507.459595 
	C147.028870,498.226562 156.031311,489.033844 165.410828,479.879333 
	C168.847015,481.005737 171.892273,482.080475 174.796967,483.445892 
	C165.104279,493.491058 155.552139,503.245514 146.000000,513.000000 
z"/>
<path fill="#000000" opacity="1.000000" stroke="none" 
	d="
M513.000000,134.000000 
	C513.000000,137.692902 513.000000,141.385818 512.692993,145.669403 
	C502.642456,155.819809 492.898926,165.379532 483.082642,174.560974 
	C481.963501,171.125824 480.917145,168.068954 480.192871,164.900116 
	C489.892639,155.476166 499.244141,146.137451 508.680359,136.885147 
	C509.895233,135.693954 511.549347,134.950729 513.000000,134.000000 
z"/>
<path fill="#000000" opacity="1.000000" stroke="none" 
	d="
M0.999999,376.000000 
	C1.000000,372.307098 1.000000,368.614166 1.307039,364.330597 
	C11.024244,354.513519 20.434412,345.287109 29.918839,336.440125 
	C31.021786,339.877502 32.050472,342.935455 32.762749,346.112183 
	C23.415770,355.202728 14.412389,364.202209 5.322177,373.113129 
	C4.106405,374.304901 2.451534,375.048737 0.999999,376.000000 
z"/>
<path fill="#000000" opacity="1.000000" stroke="none" 
	d="
M364.000000,1.000007 
	C367.692902,1.000000 371.385834,1.000000 375.583282,1.350182 
	C374.825439,3.200633 373.650299,4.785800 372.286499,6.187400 
	C363.544769,15.171460 354.761627,24.115242 345.604065,33.036377 
	C342.164795,31.948759 339.113556,30.897043 336.202820,29.554623 
	C345.562225,19.842617 354.781128,10.421315 364.000000,1.000007 
z"/>
<path fill="#000000" opacity="1.000000" stroke="none" 
	d="
M1.000000,36.000000 
	C1.000000,32.307091 1.000000,28.614182 1.307037,24.330587 
	C9.076050,16.159935 16.538025,8.579967 24.000000,1.000000 
	C27.692909,1.000000 31.385818,1.000000 35.582375,1.350172 
	C35.752853,2.259800 35.517712,2.916835 35.072155,3.364404 
	C24.709991,13.773343 14.340065,24.174744 3.912209,34.517689 
	C3.175830,35.248074 1.981425,35.516674 1.000000,36.000000 
z"/>
<path fill="#444440" opacity="1.000000" stroke="none" 
	d="
M513.000000,73.555847 
	C511.425751,75.074173 509.640747,75.935623 508.309296,77.254829 
	C492.035095,93.379410 475.827423,109.571159 458.991760,125.735107 
	C457.913544,124.524368 457.446045,123.324028 456.978516,122.123688 
	C459.210968,119.690605 461.357300,117.171402 463.689789,114.838333 
	C479.900208,98.623970 496.149292,82.448280 512.692993,66.130089 
	C513.000000,68.370560 513.000000,70.741112 513.000000,73.555847 
z"/>
<path fill="#444440" opacity="1.000000" stroke="none" 
	d="
M126.007492,458.933441 
	C120.714722,464.412598 115.482002,469.951324 110.116501,475.358276 
	C99.239075,486.319855 88.278099,497.198486 77.385841,508.145386 
	C76.117722,509.419891 75.066010,510.909698 73.956985,512.649841 
	C71.629440,513.000000 69.258888,513.000000 66.444168,513.000000 
	C72.720352,506.112976 79.379387,499.164795 86.174652,492.352478 
	C97.910133,480.587616 109.730240,468.907166 122.172455,457.060547 
	C123.889229,457.597687 124.948357,458.265564 126.007492,458.933441 
z"/>
<path fill="#444440" opacity="1.000000" stroke="none" 
	d="
M384.878967,53.085518 
	C394.929474,43.213608 405.047943,33.409683 415.007568,23.446909 
	C422.144012,16.308199 429.067780,8.956840 436.043213,1.350180 
	C438.370575,1.000000 440.741119,1.000000 443.555847,0.999999 
	C436.822723,8.343855 429.680298,15.722173 422.459991,23.023485 
	C411.729340,33.874535 400.943665,44.671127 389.716309,55.735493 
	C387.793793,55.015228 386.336365,54.050369 384.878967,53.085518 
z"/>
<path fill="#444440" opacity="1.000000" stroke="none" 
	d="
M1.000002,436.444153 
	C2.104111,435.395081 3.424683,435.007050 4.280268,434.153137 
	C20.492264,417.972687 36.649357,401.737213 53.251808,385.358643 
	C54.498676,386.775055 55.311615,388.346039 56.124542,389.916992 
	C50.884853,394.976135 45.589252,399.978882 40.416489,405.105560 
	C27.452703,417.953766 14.544547,430.858093 1.307036,443.869965 
	C1.000000,441.629425 1.000000,439.258881 1.000002,436.444153 
z"/>
<path fill="#444440" opacity="1.000000" stroke="none" 
	d="
M183.555832,1.000004 
	C171.203430,13.962370 158.394043,26.912148 145.628906,39.905403 
	C144.264267,41.294441 143.157791,42.937119 142.018417,44.785847 
	C142.105286,45.109562 142.168671,45.114361 141.849915,45.001282 
	C141.021637,45.267239 140.512146,45.646282 139.887970,46.355965 
	C134.512115,49.785213 129.250961,52.883827 123.989799,55.982437 
	C125.071365,54.410938 125.943588,52.631477 127.266510,51.299740 
	C142.349747,36.116096 157.510300,21.009262 172.619873,5.851700 
	C173.887924,4.579626 174.937057,3.089310 176.043945,1.350193 
	C178.370560,1.000000 180.741104,1.000000 183.555832,1.000004 
z"/>
<path fill="#444440" opacity="1.000000" stroke="none" 
	d="
M45.147217,142.158127 
	C43.562351,143.140900 41.726170,143.868866 40.431488,145.145859 
	C27.441256,157.958588 14.539972,170.861496 1.306824,183.869507 
	C1.000000,181.629440 1.000000,179.258896 1.000000,176.444168 
	C2.573361,174.927628 4.359385,174.069351 5.687569,172.750122 
	C20.873394,157.666885 35.981178,142.505112 51.139336,127.393929 
	C52.412201,126.125000 53.898533,125.070213 55.650917,124.312912 
	C52.685970,129.807465 49.355797,134.905060 45.731476,140.164154 
	C45.329700,140.939835 45.222069,141.554016 45.112480,142.137299 
	C45.110516,142.106400 45.147217,142.158127 45.147217,142.158127 
z"/>
<path fill="#000000" opacity="1.000000" stroke="none" 
	d="
M204.000000,0.999997 
	C207.692902,1.000000 211.385818,1.000000 215.582489,1.350188 
	C212.611252,5.413540 209.102692,9.096004 205.670914,12.848694 
	C202.379730,16.447596 199.168213,20.119352 195.597778,23.964741 
	C188.850967,26.135862 182.428055,28.101341 176.121613,29.750610 
	C185.492050,19.956264 194.746017,10.478128 204.000000,0.999997 
z"/>
<path fill="#000000" opacity="1.000000" stroke="none" 
	d="
M0.999998,216.000000 
	C1.000000,212.307098 1.000000,208.614182 1.306714,204.329956 
	C11.097791,194.494797 20.582153,185.250961 30.034891,176.407990 
	C27.923677,183.179993 25.844091,189.551163 23.426954,195.936783 
	C17.175972,201.684738 11.299904,207.457718 5.318477,213.119370 
	C4.079839,214.291779 2.449699,215.050568 0.999998,216.000000 
z"/>
<path fill="#000000" opacity="1.000000" stroke="none" 
	d="
M513.000000,154.000000 
	C513.000000,157.692902 513.000000,161.385818 512.692993,165.669403 
	C504.309052,174.153748 496.232147,182.047394 488.080566,189.559830 
	C487.011871,185.785400 486.017883,182.392212 485.372742,179.038940 
	C493.235931,171.797699 500.717560,164.482132 508.294922,157.267075 
	C509.661346,155.966003 511.421570,155.078476 513.000000,154.000000 
z"/>
<path fill="#000000" opacity="1.000000" stroke="none" 
	d="
M166.000000,513.000000 
	C162.307098,513.000000 158.614182,513.000000 154.417633,512.649841 
	C161.191086,504.784729 168.501968,497.301941 175.714142,489.725220 
	C177.016708,488.356812 177.913971,486.602661 179.397308,485.048889 
	C183.177719,486.099426 186.559158,487.127594 189.799149,488.446075 
	C181.771790,496.824280 173.885895,504.912140 166.000000,513.000000 
z"/>
<path fill="#444440" opacity="1.000000" stroke="none" 
	d="
M139.121796,466.914032 
	C124.052521,482.042572 108.983253,497.171143 93.956985,512.649841 
	C91.629440,513.000000 89.258888,513.000000 86.444168,513.000000 
	C95.554543,503.278778 105.081985,493.530731 114.673271,483.845886 
	C120.996574,477.460907 127.411789,471.166931 134.408325,464.584839 
	C136.394455,465.196320 137.758118,466.055176 139.121796,466.914032 
z"/>
<path fill="#444440" opacity="1.000000" stroke="none" 
	d="
M513.000000,93.555832 
	C511.896179,94.604645 510.576355,94.992744 509.720764,95.846237 
	C495.506683,110.025322 481.350800,124.262756 466.766052,138.660614 
	C465.827789,137.524551 465.305359,136.215012 464.782898,134.905487 
	C465.479889,133.817108 466.007050,132.559219 466.899109,131.665573 
	C482.034485,116.503555 497.215210,101.386795 512.692993,86.130013 
	C513.000000,88.370560 513.000000,90.741112 513.000000,93.555832 
z"/>
<path fill="#000000" opacity="1.000000" stroke="none" 
	d="
M0.999995,356.000000 
	C1.000000,352.307098 1.000000,348.614166 1.307040,344.330597 
	C7.997359,337.405304 14.341944,331.030762 20.797813,324.770996 
	C22.033319,323.573059 23.707182,322.827179 25.498022,322.095459 
	C26.532681,325.545959 27.248131,328.773712 27.615461,331.963135 
	C20.073437,338.887939 12.913176,345.886444 5.655509,352.782501 
	C4.304419,354.066254 2.561867,354.938049 0.999995,356.000000 
z"/>
<path fill="#000000" opacity="1.000000" stroke="none" 
	d="
M344.000000,0.999998 
	C347.692902,1.000000 351.385834,1.000000 355.582367,1.350175 
	C349.129333,8.894892 342.138306,16.056801 335.246735,23.313150 
	C333.960724,24.667221 333.073761,26.400225 331.603271,27.939499 
	C327.822388,26.895227 324.440826,25.869808 321.200745,24.554070 
	C328.894806,16.509163 336.447418,8.754580 344.000000,0.999998 
z"/>
<path fill="#444440" opacity="1.000000" stroke="none" 
	d="
M326.444153,513.000000 
	C337.467987,501.366272 348.950073,489.746368 360.385315,478.080566 
	C361.743774,476.694702 362.846619,475.058228 363.981201,473.214355 
	C363.894440,472.890717 363.830597,472.887024 364.153564,472.998230 
	C364.981964,472.717651 365.487396,472.325928 366.131073,471.610016 
	C370.500702,469.168976 374.732025,467.052094 378.963379,464.935181 
	C377.914520,466.517090 377.092194,468.323517 375.781616,469.646057 
	C363.025482,482.518555 350.177734,495.300110 337.388885,508.140289 
	C336.118561,509.415710 335.066010,510.907990 333.956177,512.649780 
	C331.629425,513.000000 329.258881,513.000000 326.444153,513.000000 
z"/>
<path fill="#444440" opacity="1.000000" stroke="none" 
	d="
M472.853607,363.841187 
	C474.433807,362.862640 476.263428,362.137543 477.555237,360.866028 
	C489.219147,349.385315 500.788849,337.808899 512.693115,326.130280 
	C513.000000,328.370575 513.000000,330.741119 513.000000,333.555847 
	C511.423340,335.076141 509.635834,335.939636 508.302734,337.261414 
	C495.430084,350.024597 482.645020,362.876068 469.798309,375.665497 
	C468.526489,376.931702 467.011627,377.953766 465.235870,378.651367 
	C467.219452,374.139984 469.576752,370.066376 472.235504,365.838562 
	C472.653717,365.066528 472.770416,364.448669 472.888916,363.862335 
	C472.890747,363.893829 472.853607,363.841187 472.853607,363.841187 
z"/>
<path fill="#000000" opacity="1.000000" stroke="none" 
	d="
M306.000000,513.000000 
	C302.307098,513.000000 298.614166,513.000000 294.417633,512.649841 
	C296.691803,509.284027 299.481995,506.279663 302.244263,503.249847 
	C305.869324,499.273590 309.472382,495.277252 313.469666,491.189026 
	C319.901276,489.370209 325.948029,487.651886 331.877441,486.249298 
	C323.173370,495.376709 314.586670,504.188354 306.000000,513.000000 
z"/>
<path fill="#000000" opacity="1.000000" stroke="none" 
	d="
M513.000000,294.000000 
	C513.000000,297.692902 513.000000,301.385834 512.692993,305.669373 
	C503.568878,314.837708 494.751831,323.415375 485.966003,331.589600 
	C487.761230,325.152527 489.525299,319.118927 491.622986,313.061096 
	C497.286530,307.875641 502.570160,302.665131 507.976715,297.585358 
	C509.462494,296.189423 511.315521,295.184418 513.000000,294.000000 
z"/>
<path fill="#444440" opacity="1.000000" stroke="none" 
	d="
M373.004395,45.951538 
	C386.093201,32.711185 399.191986,19.480700 412.256104,6.216039 
	C413.637451,4.813516 414.815063,3.210402 416.043610,1.350179 
	C418.370575,1.000000 420.741119,1.000000 423.555847,1.000008 
	C413.729004,11.437288 403.480621,21.896967 393.177429,32.302380 
	C388.021362,37.509571 382.765350,42.617798 376.904602,47.887486 
	C375.171234,47.319965 374.087799,46.635754 373.004395,45.951538 
z"/>
<path fill="#444440" opacity="1.000000" stroke="none" 
	d="
M1.000001,416.444153 
	C2.578603,414.921600 4.365862,414.054321 5.703475,412.732117 
	C18.968004,399.620697 32.158169,386.434021 45.963539,373.300354 
	C47.041935,374.533112 47.526146,375.734100 48.010345,376.935059 
	C40.578346,384.551605 33.194267,392.215637 25.701298,399.771667 
	C17.725903,407.814270 9.647406,415.754639 1.306959,423.869812 
	C1.000000,421.629425 1.000000,419.258881 1.000001,416.444153 
z"/>
<path fill="#444440" opacity="1.000000" stroke="none" 
	d="
M513.000000,473.555847 
	C512.015381,474.486389 510.816956,474.757538 510.078064,475.491302 
	C498.323425,487.164429 486.623871,498.893005 474.932770,510.629852 
	C474.485352,511.079041 474.248840,511.738342 473.957001,512.649841 
	C471.629425,513.000000 469.258881,513.000000 466.444153,513.000000 
	C476.025177,502.808197 486.027374,492.593658 496.084717,482.433685 
	C501.469452,476.993988 506.949127,471.648224 512.692993,466.130005 
	C513.000000,468.370575 513.000000,470.741119 513.000000,473.555847 
z"/>
<path fill="#444440" opacity="1.000000" stroke="none" 
	d="
M513.000000,113.555832 
	C511.895233,114.605598 510.575226,114.995224 509.718109,115.849350 
	C497.835693,127.690773 486.016785,139.595886 473.747803,151.639313 
	C472.593292,150.175583 471.873291,148.557968 471.153290,146.940369 
	C483.343170,134.885986 495.531372,122.829918 507.725037,110.779327 
	C509.264160,109.258240 510.831604,107.765778 512.692993,106.130020 
	C513.000000,108.370560 513.000000,110.741112 513.000000,113.555832 
z"/>
<path fill="#444440" opacity="1.000000" stroke="none" 
	d="
M152.117767,473.912659 
	C139.383163,486.708313 126.648567,499.503998 113.956985,512.649841 
	C111.629440,513.000000 109.258888,513.000000 106.444168,513.000000 
	C119.596306,499.277069 133.192596,485.554108 147.401733,471.634338 
	C149.382309,472.262543 150.750046,473.087616 152.117767,473.912659 
z"/>
<path fill="#000000" opacity="1.000000" stroke="none" 
	d="
M186.000000,513.000000 
	C182.307098,513.000000 178.614182,513.000000 174.417633,512.649841 
	C175.303619,510.672241 176.620468,508.975281 178.095825,507.429657 
	C183.707397,501.550934 189.370224,495.721100 195.426849,489.916443 
	C199.206741,490.691895 202.573685,491.423859 205.799133,492.446106 
	C199.105103,499.490967 192.552551,506.245483 186.000000,513.000000 
z"/>
<path fill="#000000" opacity="1.000000" stroke="none" 
	d="
M513.000000,174.000000 
	C513.000000,177.692902 513.000000,181.385818 512.692993,185.669403 
	C505.642609,192.820343 498.899261,199.380600 492.085083,205.540970 
	C491.303589,201.764008 490.592896,198.386902 490.203094,194.896637 
	C496.556030,188.815704 502.549194,182.807632 508.652649,176.913818 
	C509.887878,175.721024 511.540070,174.960052 513.000000,174.000000 
z"/>
<path fill="#444440" opacity="1.000000" stroke="none" 
	d="
M1.000000,36.444168 
	C1.981425,35.516674 3.175830,35.248074 3.912209,34.517689 
	C14.340065,24.174744 24.709991,13.773343 35.072155,3.364404 
	C35.517712,2.916835 35.752853,2.259800 36.043007,1.350172 
	C38.370556,1.000000 40.741116,1.000000 43.555836,1.000000 
	C29.871359,15.246636 15.742719,29.493271 1.307039,43.869953 
	C1.000000,41.629444 1.000000,39.258884 1.000000,36.444168 
z"/>
<path fill="#444440" opacity="1.000000" stroke="none" 
	d="
M359.992401,39.068886 
	C370.642731,28.231361 381.305481,17.405989 391.929138,6.542364 
	C393.413300,5.024712 394.705139,3.318999 396.042999,1.350169 
	C398.370575,1.000000 400.741119,1.000000 403.555847,1.000001 
	C390.854706,14.255443 377.709412,27.510883 363.911438,40.880470 
	C362.169983,40.352707 361.081207,39.710800 359.992401,39.068886 
z"/>
<path fill="#444440" opacity="1.000000" stroke="none" 
	d="
M0.999999,396.444153 
	C2.569823,394.930115 4.344803,394.068726 5.677126,392.757507 
	C16.645632,381.962891 27.531963,371.084747 39.072975,360.233215 
	C40.139236,361.464539 40.575737,362.694611 41.012241,363.924683 
	C31.412121,373.712494 21.827251,383.515381 12.203780,393.280182 
	C8.721473,396.813660 5.146667,400.255981 1.307036,403.869965 
	C1.000000,401.629425 1.000000,399.258881 0.999999,396.444153 
z"/>
<path fill="#000000" opacity="1.000000" stroke="none" 
	d="
M0.999995,336.000000 
	C1.000000,332.307098 1.000000,328.614166 1.307040,324.330597 
	C5.969387,319.433350 10.253278,315.050842 14.712753,310.854980 
	C16.684990,308.999298 19.012907,307.521606 21.503326,306.102325 
	C22.247990,309.183136 22.668684,312.033905 22.953671,315.199585 
	C16.880791,321.507599 10.981165,327.538879 4.972209,333.459137 
	C3.876907,334.538300 2.335475,335.164612 0.999995,336.000000 
z"/>
<path fill="#000000" opacity="1.000000" stroke="none" 
	d="
M324.000000,1.000001 
	C327.692902,1.000000 331.385834,1.000000 335.582367,1.350178 
	C329.018066,8.829469 321.950134,15.958582 314.479004,23.046844 
	C311.341156,22.396906 308.606567,21.787819 305.838562,20.813158 
	C306.944305,19.057650 308.000366,17.588451 309.237244,16.291767 
	C314.127380,11.165147 319.074188,6.092596 324.000000,1.000001 
z"/>
<path fill="#000000" opacity="1.000000" stroke="none" 
	d="
M0.999997,236.000000 
	C1.000000,232.307098 1.000000,228.614182 1.307038,224.330597 
	C8.359537,217.178070 15.104999,210.616226 21.918011,204.470490 
	C20.894934,210.229355 19.804306,215.572128 18.379818,220.938583 
	C15.309455,223.529373 12.632756,226.164307 9.819792,228.644684 
	C6.949583,231.175522 3.945477,233.554520 0.999997,236.000000 
z"/>
<path fill="#000000" opacity="1.000000" stroke="none" 
	d="
M224.000000,1.000000 
	C227.692902,1.000000 231.385818,1.000000 235.582367,1.350173 
	C234.490753,3.533504 232.916611,5.385550 231.295914,7.195927 
	C227.848541,11.046734 224.376984,14.875883 220.517197,18.819672 
	C214.765793,19.893782 209.412521,20.862139 204.203278,21.542233 
	C210.898209,14.502645 217.449097,7.751323 224.000000,1.000000 
z"/>
<path fill="#000000" opacity="1.000000" stroke="none" 
	d="
M513.000000,274.000000 
	C513.000000,277.692902 513.000000,281.385834 512.692993,285.669373 
	C505.976013,292.487793 499.566132,298.715546 493.085632,304.524231 
	C494.001587,298.732208 494.988098,293.359283 496.325439,288.037048 
	C499.247040,285.762299 501.775146,283.387360 504.400116,281.124786 
	C507.219330,278.694824 510.129517,276.370453 513.000000,274.000000 
z"/>
<path fill="#000000" opacity="1.000000" stroke="none" 
	d="
M286.000000,513.000000 
	C282.307098,513.000000 278.614166,513.000000 274.417664,512.649841 
	C276.244659,509.731140 278.629333,507.209076 280.891296,504.581421 
	C283.316528,501.764099 285.626434,498.847504 288.224670,495.640167 
	C293.956787,494.589661 299.450897,493.873199 304.802185,493.446533 
	C298.439575,500.157532 292.219788,506.578766 286.000000,513.000000 
z"/>
<path fill="#000000" opacity="1.000000" stroke="none" 
	d="
M513.000000,194.000000 
	C513.000000,197.692902 513.000000,201.385818 512.692993,205.669403 
	C506.642639,211.820312 500.899292,217.380524 495.085846,222.526520 
	C494.441956,218.436829 493.868195,214.761383 493.627686,211.060760 
	C497.909576,207.254745 501.792816,203.402069 505.832581,199.721161 
	C508.087341,197.666656 510.602295,195.897659 513.000000,194.000000 
z"/>
<path fill="#000000" opacity="1.000000" stroke="none" 
	d="
M206.000000,513.000000 
	C202.307098,513.000000 198.614182,513.000000 194.417633,512.649841 
	C196.003448,509.972382 198.086044,507.638855 200.183838,505.319092 
	C203.812668,501.306396 207.450928,497.302216 211.482605,493.211975 
	C215.566818,493.804932 219.253677,494.480408 222.799057,495.446228 
	C217.105072,501.490997 211.552536,507.245514 206.000000,513.000000 
z"/>
<path fill="#444440" opacity="1.000000" stroke="none" 
	d="
M165.019897,479.827637 
	C156.031311,489.033844 147.028870,498.226562 138.067932,507.459595 
	C136.589996,508.982391 135.294037,510.681854 133.957001,512.649841 
	C131.629440,513.000000 129.258896,513.000000 126.444168,513.000000 
	C137.481003,501.409973 148.962006,489.819946 161.091919,478.113434 
	C162.833832,478.607178 163.926865,479.217407 165.019897,479.827637 
z"/>
<path fill="#444440" opacity="1.000000" stroke="none" 
	d="
M513.000000,133.555832 
	C511.549347,134.950729 509.895233,135.693954 508.680359,136.885147 
	C499.244141,146.137451 489.892639,155.476166 479.884766,164.772354 
	C478.832550,163.528351 478.410492,162.300140 477.988464,161.071930 
	C489.454254,149.467987 500.920074,137.864029 512.692932,126.130035 
	C513.000000,128.370560 513.000000,130.741104 513.000000,133.555832 
z"/>
<path fill="#000000" opacity="1.000000" stroke="none" 
	d="
M0.999999,316.000000 
	C1.000000,312.307098 1.000000,308.614166 1.307038,304.330597 
	C7.119685,298.464172 12.625294,293.188385 18.483398,288.133179 
	C19.137426,292.212311 19.438959,296.070953 19.404633,299.944824 
	C15.639998,303.212555 12.276934,306.538330 8.760080,309.692596 
	C6.281537,311.915649 3.594147,313.905853 0.999999,316.000000 
z"/>
<path fill="#000000" opacity="1.000000" stroke="none" 
	d="
M304.000000,0.999998 
	C307.692902,1.000000 311.385834,1.000000 315.582367,1.350178 
	C314.031097,3.993127 311.975586,6.285351 309.921417,8.578796 
	C306.589417,12.298894 303.258331,16.019791 299.507080,19.824272 
	C295.362854,19.314335 291.638397,18.720482 288.046967,17.810091 
	C293.453339,11.995699 298.726654,6.497848 304.000000,0.999998 
z"/>
<path fill="#444440" opacity="1.000000" stroke="none" 
	d="
M0.999999,376.444153 
	C2.451534,375.048737 4.106405,374.304901 5.322177,373.113129 
	C14.412389,364.202209 23.415770,355.202728 33.086056,346.247192 
	C34.192249,347.814392 34.658733,349.365448 35.125214,350.916473 
	C25.391018,360.469452 15.658103,370.023743 5.921172,379.573914 
	C4.495275,380.972504 3.050136,382.351471 1.306943,383.869751 
	C1.000000,381.629425 1.000000,379.258881 0.999999,376.444153 
z"/>
<path fill="#444440" opacity="1.000000" stroke="none" 
	d="
M345.992096,33.072273 
	C354.761627,24.115242 363.544769,15.171460 372.286499,6.187400 
	C373.650299,4.785800 374.825439,3.200633 376.043915,1.350182 
	C378.370575,1.000000 380.741119,1.000000 383.555847,1.000000 
	C374.442596,10.723519 364.883148,20.445034 355.330048,30.172764 
	C353.931427,31.596926 352.562958,33.050682 350.699158,34.751572 
	C348.809204,34.365685 347.400665,33.718979 345.992096,33.072273 
z"/>
<path fill="#444440" opacity="1.000000" stroke="none" 
	d="
M203.555832,0.999997 
	C194.746017,10.478128 185.492050,19.956264 175.967499,30.084534 
	C172.443405,31.776541 169.189896,32.818413 165.936386,33.860283 
	C167.067993,32.297253 168.032715,30.573477 169.358200,29.197180 
	C178.225342,19.990238 187.169342,10.857325 196.044189,1.350194 
	C198.370560,1.000000 200.741104,1.000000 203.555832,0.999997 
z"/>
<path fill="#444440" opacity="1.000000" stroke="none" 
	d="
M30.066513,176.007126 
	C20.582153,185.250961 11.097791,194.494797 1.306714,203.869308 
	C1.000000,201.629440 1.000000,199.258896 0.999998,196.444168 
	C2.577764,194.922775 4.347281,194.044235 5.702367,192.736313 
	C14.908292,183.850784 24.026848,174.874741 33.586746,166.308990 
	C32.688751,169.795715 31.377630,172.901428 30.066513,176.007126 
z"/>
<path fill="#000000" opacity="1.000000" stroke="none" 
	d="
M244.000000,1.000000 
	C247.692902,1.000000 251.385818,1.000000 255.582367,1.350174 
	C254.830307,3.193969 253.604965,4.714423 252.312866,6.175872 
	C249.196686,9.700492 246.049301,13.197535 242.479996,16.803396 
	C237.383408,17.215401 232.721329,17.529707 228.200806,17.553745 
	C233.561569,11.842319 238.780777,6.421160 244.000000,1.000000 
z"/>
<path fill="#000000" opacity="1.000000" stroke="none" 
	d="
M1.000001,256.000000 
	C1.000000,252.307098 1.000000,248.614182 1.307039,244.330597 
	C7.024009,238.512985 12.433940,233.286057 17.914158,228.495789 
	C17.558172,233.592972 17.131901,238.253494 16.372391,242.939163 
	C14.220101,244.615448 12.435302,246.306335 10.574345,247.908768 
	C7.408124,250.635147 4.194003,253.305893 1.000001,256.000000 
z"/>
<path fill="#000000" opacity="1.000000" stroke="none" 
	d="
M226.000000,513.000000 
	C222.307098,513.000000 218.614182,513.000000 214.417633,512.649841 
	C215.282608,510.693298 216.622971,509.061737 218.025467,507.485535 
	C221.362137,503.735626 224.728180,500.011871 228.511444,496.184570 
	C232.940536,496.446259 236.940521,496.800934 240.799072,497.445923 
	C235.771759,502.824158 230.885864,507.912079 226.000000,513.000000 
z"/>
<path fill="#000000" opacity="1.000000" stroke="none" 
	d="
M513.000000,214.000000 
	C513.000000,217.692902 513.000000,221.385818 512.692993,225.669403 
	C507.309235,231.153641 502.232513,236.047180 497.085602,240.511169 
	C496.769592,236.081818 496.523743,232.082031 496.612427,228.060669 
	C499.227692,225.929688 501.459167,223.763687 503.801483,221.725021 
	C506.821228,219.096664 509.929718,216.570282 513.000000,214.000000 
z"/>
<path fill="#000000" opacity="1.000000" stroke="none" 
	d="
M513.000000,253.999985 
	C513.000000,257.692902 513.000000,261.385834 512.692993,265.669403 
	C506.975952,271.486969 501.565948,276.713898 496.085938,281.519714 
	C496.442352,276.427887 496.868774,271.757111 497.628357,267.060974 
	C499.780457,265.384399 501.565063,263.693420 503.425964,262.090942 
	C506.592041,259.364594 509.806091,256.694000 513.000000,253.999985 
z"/>
<path fill="#000000" opacity="1.000000" stroke="none" 
	d="
M266.000000,513.000000 
	C262.307098,513.000000 258.614197,513.000000 254.417633,512.649841 
	C255.169617,510.806091 256.394867,509.285675 257.687012,507.824341 
	C260.803345,504.299927 263.950897,500.803101 267.531677,497.195312 
	C272.631775,496.782257 277.286102,496.469086 281.798981,496.446228 
	C276.438385,502.157715 271.219208,507.578857 266.000000,513.000000 
z"/>
<path fill="#000000" opacity="1.000000" stroke="none" 
	d="
M0.999999,296.000000 
	C1.000000,292.307098 1.000000,288.614166 1.307041,284.330597 
	C6.690905,278.846313 11.767727,273.952698 16.914703,269.503845 
	C17.224989,273.936951 17.465124,277.925354 17.372047,281.939026 
	C14.760939,284.074493 12.533149,286.242188 10.192632,288.280487 
	C7.175636,290.907898 4.068380,293.431610 0.999999,296.000000 
z"/>
<path fill="#000000" opacity="1.000000" stroke="none" 
	d="
M284.000000,1.000001 
	C287.692902,1.000000 291.385834,1.000000 295.582367,1.350171 
	C294.718536,3.305560 293.380402,4.936899 291.977814,6.510772 
	C288.639496,10.256721 285.270691,13.975509 281.500610,17.798904 
	C277.077820,17.543165 273.068665,17.193785 269.200928,16.554070 
	C274.228241,11.175824 279.114105,6.087913 284.000000,1.000001 
z"/>
<path fill="#000000" opacity="1.000000" stroke="none" 
	d="
M264.000000,0.999999 
	C267.692902,1.000000 271.385834,1.000000 275.582367,1.350177 
	C274.830383,3.193898 273.605164,4.714343 272.313080,6.175634 
	C269.196747,9.700014 266.049133,13.196730 262.464783,16.805059 
	C257.696747,16.885090 253.378128,16.864662 249.200928,16.553913 
	C254.228256,11.175726 259.114136,6.087862 264.000000,0.999999 
z"/>
<path fill="#000000" opacity="1.000000" stroke="none" 
	d="
M246.000000,513.000000 
	C242.307098,513.000000 238.614182,513.000000 234.417633,512.649841 
	C235.169617,510.806091 236.394821,509.285614 237.686966,507.824310 
	C240.803284,504.299866 243.950897,500.803101 247.535278,497.194794 
	C252.303299,497.114807 256.621918,497.135193 260.799133,497.445923 
	C255.771820,502.824188 250.885910,507.912079 246.000000,513.000000 
z"/>
<path fill="#000000" opacity="1.000000" stroke="none" 
	d="
M513.000000,234.000000 
	C513.000000,237.692902 513.000000,241.385818 512.692993,245.669403 
	C507.309235,251.153656 502.232452,256.047241 497.085510,260.485046 
	C497.108551,255.714996 497.201782,251.400681 497.628235,247.061020 
	C499.780365,245.384506 501.565002,243.693497 503.425934,242.091049 
	C506.592010,239.364685 509.806091,236.694031 513.000000,234.000000 
z"/>
<path fill="#000000" opacity="1.000000" stroke="none" 
	d="
M1.000001,276.000000 
	C1.000000,272.307098 1.000000,268.614166 1.307038,264.330597 
	C6.690791,258.846375 11.767506,253.952789 16.914482,249.514954 
	C16.891388,254.284988 16.798031,258.599304 16.371506,262.939026 
	C14.219442,264.615601 12.434871,266.306671 10.573996,267.909088 
	C7.407938,270.635406 4.193889,273.306000 1.000001,276.000000 
z"/>
<path fill="#444440" opacity="1.000000" stroke="none" 
	d="
M306.444153,513.000000 
	C314.586670,504.188354 323.173370,495.376709 332.037659,485.911072 
	C335.205688,484.496185 338.096191,483.735229 340.986664,482.974304 
	C339.923035,484.550812 339.058411,486.317566 337.763214,487.672729 
	C329.867859,495.933685 321.874634,504.101105 313.957031,512.649841 
	C311.629425,513.000000 309.258881,513.000000 306.444153,513.000000 
z"/>
<path fill="#444440" opacity="1.000000" stroke="none" 
	d="
M485.934784,331.993042 
	C494.751831,323.415375 503.568878,314.837708 512.692993,306.130005 
	C513.000000,308.370575 513.000000,310.741119 513.000000,313.555847 
	C511.426056,315.073975 509.667633,315.954865 508.308411,317.253571 
	C500.048798,325.145325 491.880127,333.132294 483.300964,340.648041 
	C483.925476,337.470093 484.930115,334.731567 485.934784,331.993042 
z"/>
<path fill="#444440" opacity="1.000000" stroke="none" 
	d="
M178.998337,485.026581 
	C177.913971,486.602661 177.016708,488.356812 175.714142,489.725220 
	C168.501968,497.301941 161.191086,504.784729 153.957001,512.649841 
	C151.629440,513.000000 149.258896,513.000000 146.444168,513.000000 
	C155.552139,503.245514 165.104279,493.491058 175.145569,483.448792 
	C176.755920,483.782837 177.877121,484.404724 178.998337,485.026581 
z"/>
<path fill="#444440" opacity="1.000000" stroke="none" 
	d="
M513.000000,153.555847 
	C511.421570,155.078476 509.661346,155.966003 508.294922,157.267075 
	C500.717560,164.482132 493.235931,171.797699 485.034119,178.954422 
	C483.949615,177.533066 483.552521,176.236176 483.155426,174.939270 
	C492.898926,165.379532 502.642456,155.819809 512.692993,146.130035 
	C513.000000,148.370560 513.000000,150.741104 513.000000,153.555847 
z"/>
<path fill="#444440" opacity="1.000000" stroke="none" 
	d="
M332.002625,27.958353 
	C333.073761,26.400225 333.960724,24.667221 335.246735,23.313150 
	C342.138306,16.056801 349.129333,8.894892 356.042999,1.350175 
	C358.370575,1.000000 360.741119,1.000000 363.555847,1.000007 
	C354.781128,10.421315 345.562225,19.842617 335.853333,29.548218 
	C334.243103,29.207796 333.122864,28.583075 332.002625,27.958353 
z"/>
<path fill="#444440" opacity="1.000000" stroke="none" 
	d="
M0.999995,356.444153 
	C2.561867,354.938049 4.304419,354.066254 5.655509,352.782501 
	C12.913176,345.886444 20.073437,338.887939 27.954823,332.046143 
	C29.043060,333.465240 29.443821,334.762970 29.844578,336.060699 
	C20.434412,345.287109 11.024244,354.513519 1.307039,363.869965 
	C1.000000,361.629425 1.000000,359.258881 0.999995,356.444153 
z"/>
<path fill="#000000" opacity="1.000000" stroke="none" 
	d="
M513.000000,494.000000 
	C513.000000,497.692902 513.000000,501.385834 512.694641,505.668213 
	C510.259521,508.505127 508.129761,510.752563 506.000000,513.000000 
	C502.307098,513.000000 498.614166,513.000000 494.417664,512.649841 
	C498.115875,507.860016 502.228027,503.330109 506.560638,499.021973 
	C508.476929,497.116516 510.839844,495.660217 513.000000,494.000000 
z"/>
<path fill="#444440" opacity="1.000000" stroke="none" 
	d="
M195.013885,489.872986 
	C189.370224,495.721100 183.707397,501.550934 178.095825,507.429657 
	C176.620468,508.975281 175.303619,510.672241 173.957001,512.649841 
	C171.629440,513.000000 169.258896,513.000000 166.444183,513.000000 
	C173.885895,504.912140 181.771790,496.824280 190.155701,488.384491 
	C192.107086,488.646057 193.560486,489.259521 195.013885,489.872986 
z"/>
<path fill="#444440" opacity="1.000000" stroke="none" 
	d="
M513.000000,173.555847 
	C511.540070,174.960052 509.887878,175.721024 508.652649,176.913818 
	C502.549194,182.807632 496.556030,188.815704 489.879608,194.742920 
	C488.875214,193.115280 488.515228,191.528183 488.155243,189.941071 
	C496.232147,182.047394 504.309052,174.153748 512.692993,166.130035 
	C513.000000,168.370560 513.000000,170.741104 513.000000,173.555847 
z"/>
<path fill="#444440" opacity="1.000000" stroke="none" 
	d="
M513.000000,493.555847 
	C510.839844,495.660217 508.476929,497.116516 506.560638,499.021973 
	C502.228027,503.330109 498.115875,507.860016 493.957031,512.649841 
	C491.629425,513.000000 489.258881,513.000000 486.444153,513.000000 
	C494.795319,504.086670 503.590607,495.173370 512.692993,486.130005 
	C513.000000,488.370575 513.000000,490.741119 513.000000,493.555847 
z"/>
<path fill="#444440" opacity="1.000000" stroke="none" 
	d="
M0.999995,336.444153 
	C2.335475,335.164612 3.876907,334.538300 4.972209,333.459137 
	C10.981165,327.538879 16.880791,321.507599 23.275913,315.396790 
	C24.215513,317.477020 24.697163,319.674866 25.178812,321.872742 
	C23.707182,322.827179 22.033319,323.573059 20.797813,324.770996 
	C14.341944,331.030762 7.997359,337.405304 1.307040,343.869965 
	C1.000000,341.629425 1.000000,339.258881 0.999995,336.444153 
z"/>
<path fill="#444440" opacity="1.000000" stroke="none" 
	d="
M314.882202,23.087692 
	C321.950134,15.958582 329.018066,8.829469 336.042999,1.350178 
	C338.370575,1.000000 340.741119,1.000000 343.555847,0.999998 
	C336.447418,8.754580 328.894806,16.509163 320.827179,24.616188 
	C318.502167,24.341648 316.692169,23.714670 314.882202,23.087692 
z"/>
<path fill="#444440" opacity="1.000000" stroke="none" 
	d="
M223.555832,1.000000 
	C217.449097,7.751323 210.898209,14.502645 203.837830,21.680984 
	C200.859467,22.658369 198.390579,23.208733 195.921692,23.759096 
	C199.168213,20.119352 202.379730,16.447596 205.670914,12.848694 
	C209.102692,9.096004 212.611252,5.413540 216.043121,1.350188 
	C218.370560,1.000000 220.741104,1.000000 223.555832,1.000000 
z"/>
<path fill="#444440" opacity="1.000000" stroke="none" 
	d="
M21.850464,204.054382 
	C15.104999,210.616226 8.359537,217.178070 1.307038,223.869965 
	C1.000000,221.629440 1.000000,219.258896 0.999998,216.444168 
	C2.449699,215.050568 4.079839,214.291779 5.318477,213.119370 
	C11.299904,207.457718 17.175972,201.684738 23.538460,196.321289 
	C23.275166,199.145676 22.562817,201.600037 21.850464,204.054382 
z"/>
<path fill="#444440" opacity="1.000000" stroke="none" 
	d="
M493.156250,304.943359 
	C499.566132,298.715546 505.976013,292.487793 512.692993,286.130005 
	C513.000000,288.370575 513.000000,290.741119 513.000000,293.555847 
	C511.315521,295.184418 509.462494,296.189423 507.976715,297.585358 
	C502.570160,302.665131 497.286530,307.875641 491.497681,312.684265 
	C491.744629,309.868866 492.450470,307.406128 493.156250,304.943359 
z"/>
<path fill="#444440" opacity="1.000000" stroke="none" 
	d="
M286.444153,513.000000 
	C292.219788,506.578766 298.439575,500.157532 305.161926,493.288574 
	C308.137939,492.323761 310.611420,491.806641 313.084869,491.289520 
	C309.472382,495.277252 305.869324,499.273590 302.244263,503.249847 
	C299.481995,506.279663 296.691803,509.284027 293.957001,512.649841 
	C291.629425,513.000000 289.258881,513.000000 286.444153,513.000000 
z"/>
<path fill="#444440" opacity="1.000000" stroke="none" 
	d="
M23.555836,1.000000 
	C16.538025,8.579967 9.076050,16.159935 1.307037,23.869951 
	C1.000000,21.629442 1.000000,19.258884 1.350171,16.487171 
	C6.466895,11.057344 11.233448,6.028672 16.000000,1.000000 
	C18.370558,1.000000 20.741116,1.000000 23.555836,1.000000 
z"/>
<path fill="#444440" opacity="1.000000" stroke="none" 
	d="
M513.000000,193.555817 
	C510.602295,195.897659 508.087341,197.666656 505.832581,199.721161 
	C501.792816,203.402069 497.909576,207.254745 493.493835,210.697327 
	C492.736481,208.886322 492.446198,207.413574 492.155884,205.940842 
	C498.899261,199.380600 505.642609,192.820343 512.692993,186.130051 
	C513.000000,188.370560 513.000000,190.741104 513.000000,193.555817 
z"/>
<path fill="#444440" opacity="1.000000" stroke="none" 
	d="
M211.085236,493.294464 
	C207.450928,497.302216 203.812668,501.306396 200.183838,505.319092 
	C198.086044,507.638855 196.003448,509.972382 193.957001,512.649841 
	C191.629440,513.000000 189.258896,513.000000 186.444168,513.000000 
	C192.552551,506.245483 199.105103,499.490967 206.180710,492.385132 
	C208.164246,492.454071 209.624741,492.874268 211.085236,493.294464 
z"/>
<path fill="#444440" opacity="1.000000" stroke="none" 
	d="
M299.926849,19.740356 
	C303.258331,16.019791 306.589417,12.298894 309.921417,8.578796 
	C311.975586,6.285351 314.031097,3.993127 316.042999,1.350178 
	C318.370575,1.000000 320.741119,1.000000 323.555847,1.000001 
	C319.074188,6.092596 314.127380,11.165147 309.237244,16.291767 
	C308.000366,17.588451 306.944305,19.057650 305.443329,20.769791 
	C303.363281,20.641453 301.645050,20.190905 299.926849,19.740356 
z"/>
<path fill="#444440" opacity="1.000000" stroke="none" 
	d="
M0.999999,316.444153 
	C3.594147,313.905853 6.281537,311.915649 8.760080,309.692596 
	C12.276934,306.538330 15.639998,303.212555 19.650648,300.255005 
	C20.548130,302.324066 20.863741,304.098175 21.179354,305.872314 
	C19.012907,307.521606 16.684990,308.999298 14.712753,310.854980 
	C10.253278,315.050842 5.969387,319.433350 1.307040,323.869965 
	C1.000000,321.629425 1.000000,319.258881 0.999999,316.444153 
z"/>
<path fill="#000000" opacity="1.000000" stroke="none" 
	d="
M15.527336,1.000000 
	C11.233448,6.028672 6.466895,11.057344 1.350171,16.043007 
	C1.000000,11.075478 1.000000,6.150956 1.000000,1.000000 
	C5.683317,1.000000 10.368995,1.000000 15.527336,1.000000 
z"/>
<path fill="#444440" opacity="1.000000" stroke="none" 
	d="
M17.843872,228.059128 
	C12.433940,233.286057 7.024009,238.512985 1.307039,243.869965 
	C1.000000,241.629440 1.000000,239.258896 0.999997,236.444168 
	C3.945477,233.554520 6.949583,231.175522 9.819792,228.644684 
	C12.632756,226.164307 15.309455,223.529373 18.507532,221.337006 
	C18.594028,223.827545 18.218950,225.943329 17.843872,228.059128 
z"/>
<path fill="#444440" opacity="1.000000" stroke="none" 
	d="
M243.555832,1.000000 
	C238.780777,6.421160 233.561569,11.842319 227.798309,17.633327 
	C225.141281,18.240093 223.028320,18.477007 220.915344,18.713921 
	C224.376984,14.875883 227.848541,11.046734 231.295914,7.195927 
	C232.916611,5.385550 234.490753,3.533504 236.042999,1.350173 
	C238.370560,1.000000 240.741104,1.000000 243.555832,1.000000 
z"/>
<path fill="#444440" opacity="1.000000" stroke="none" 
	d="
M228.082336,496.277527 
	C224.728180,500.011871 221.362137,503.735626 218.025467,507.485535 
	C216.622971,509.061737 215.282608,510.693298 213.957001,512.649841 
	C211.629440,513.000000 209.258896,513.000000 206.444183,513.000000 
	C211.552536,507.245514 217.105072,501.490997 223.182312,495.381104 
	C225.165466,495.442993 226.623901,495.860260 228.082336,496.277527 
z"/>
<path fill="#444440" opacity="1.000000" stroke="none" 
	d="
M513.000000,213.555817 
	C509.929718,216.570282 506.821228,219.096664 503.801483,221.725021 
	C501.459167,223.763687 499.227692,225.929688 496.449768,227.708252 
	C495.687103,225.898514 495.421539,224.419617 495.155975,222.940735 
	C500.899292,217.380524 506.642639,211.820312 512.692993,206.130051 
	C513.000000,208.370560 513.000000,210.741104 513.000000,213.555817 
z"/>
<path fill="#444440" opacity="1.000000" stroke="none" 
	d="
M266.444153,513.000000 
	C271.219208,507.578857 276.438385,502.157715 282.226929,496.380280 
	C284.526459,496.007446 286.256561,495.990845 287.986694,495.974243 
	C285.626434,498.847504 283.316528,501.764099 280.891296,504.581421 
	C278.629333,507.209076 276.244659,509.731140 273.957031,512.649841 
	C271.629425,513.000000 269.258881,513.000000 266.444153,513.000000 
z"/>
<path fill="#444440" opacity="1.000000" stroke="none" 
	d="
M0.999999,296.444153 
	C4.068380,293.431610 7.175636,290.907898 10.192632,288.280487 
	C12.533149,286.242188 14.760939,284.074493 17.502951,282.351166 
	C18.021681,284.462891 18.076294,286.187775 18.130905,287.912628 
	C12.625294,293.188385 7.119685,298.464172 1.307038,303.869965 
	C1.000000,301.629425 1.000000,299.258881 0.999999,296.444153 
z"/>
<path fill="#444440" opacity="1.000000" stroke="none" 
	d="
M496.155945,281.940796 
	C501.565948,276.713898 506.975952,271.486969 512.692993,266.130035 
	C513.000000,268.370575 513.000000,270.741119 513.000000,273.555847 
	C510.129517,276.370453 507.219330,278.694824 504.400116,281.124786 
	C501.775146,283.387360 499.247040,285.762299 496.290253,287.605896 
	C495.988129,285.396271 496.072021,283.668518 496.155945,281.940796 
z"/>
<path fill="#444440" opacity="1.000000" stroke="none" 
	d="
M281.914215,17.705261 
	C285.270691,13.975509 288.639496,10.256721 291.977814,6.510772 
	C293.380402,4.936899 294.718536,3.305560 296.042999,1.350171 
	C298.370575,1.000000 300.741119,1.000000 303.555847,0.999998 
	C298.726654,6.497848 293.453339,11.995699 287.618896,17.757133 
	C285.343262,17.915564 283.628754,17.810411 281.914215,17.705261 
z"/>
<path fill="#444440" opacity="1.000000" stroke="none" 
	d="
M247.085876,497.295166 
	C243.950897,500.803101 240.803284,504.299866 237.686966,507.824310 
	C236.394821,509.285614 235.169617,510.806091 233.957001,512.649841 
	C231.629440,513.000000 229.258896,513.000000 226.444153,513.000000 
	C230.885864,507.912079 235.771759,502.824158 241.236481,497.380127 
	C243.572159,497.114410 245.329025,497.204773 247.085876,497.295166 
z"/>
<path fill="#444440" opacity="1.000000" stroke="none" 
	d="
M263.555847,0.999999 
	C259.114136,6.087862 254.228256,11.175726 248.763550,16.619650 
	C246.427979,16.885706 244.671249,16.795700 242.914505,16.705696 
	C246.049301,13.197535 249.196686,9.700492 252.312866,6.175872 
	C253.604965,4.714423 254.830307,3.193969 256.042999,1.350174 
	C258.370575,1.000000 260.741119,1.000000 263.555847,0.999999 
z"/>
<path fill="#444440" opacity="1.000000" stroke="none" 
	d="
M262.914154,16.704601 
	C266.049133,13.196730 269.196747,9.700014 272.313080,6.175634 
	C273.605164,4.714343 274.830383,3.193898 276.042999,1.350177 
	C278.370575,1.000000 280.741119,1.000000 283.555847,1.000001 
	C279.114105,6.087913 274.228241,11.175824 268.763550,16.619884 
	C266.427856,16.885553 264.671021,16.795078 262.914154,16.704601 
z"/>
<path fill="#444440" opacity="1.000000" stroke="none" 
	d="
M246.444168,513.000000 
	C250.885910,507.912079 255.771820,502.824188 261.236450,497.380005 
	C263.572083,497.114227 265.328979,497.204681 267.085876,497.295166 
	C263.950897,500.803101 260.803345,504.299927 257.687012,507.824341 
	C256.394867,509.285675 255.169617,510.806091 253.957001,512.649841 
	C251.629440,513.000000 249.258896,513.000000 246.444168,513.000000 
z"/>
<path fill="#444440" opacity="1.000000" stroke="none" 
	d="
M513.000000,233.555832 
	C509.806091,236.694031 506.592010,239.364685 503.425934,242.091049 
	C501.565002,243.693497 499.780365,245.384506 497.497559,246.638031 
	C497.074432,244.473816 497.115112,242.707291 497.155823,240.940735 
	C502.232513,236.047180 507.309235,231.153641 512.692993,226.130035 
	C513.000000,228.370560 513.000000,230.741104 513.000000,233.555832 
z"/>
<path fill="#444440" opacity="1.000000" stroke="none" 
	d="
M16.844223,249.059235 
	C11.767506,253.952789 6.690791,258.846375 1.307038,263.869965 
	C1.000000,261.629425 1.000000,259.258881 1.000001,256.444153 
	C4.194003,253.305893 7.408124,250.635147 10.574345,247.908768 
	C12.435302,246.306335 14.220101,244.615448 16.503157,243.362076 
	C16.926182,245.526291 16.885204,247.292770 16.844223,249.059235 
z"/>
<path fill="#444440" opacity="1.000000" stroke="none" 
	d="
M497.155701,260.940796 
	C502.232452,256.047241 507.309235,251.153656 512.692993,246.130051 
	C513.000000,248.370560 513.000000,250.741104 513.000000,253.555817 
	C509.806091,256.694000 506.592041,259.364594 503.425964,262.090942 
	C501.565063,263.693420 499.780457,265.384399 497.498047,266.637878 
	C497.074982,264.473724 497.115326,262.707245 497.155701,260.940796 
z"/>
<path fill="#444440" opacity="1.000000" stroke="none" 
	d="
M1.000001,276.444153 
	C4.193889,273.306000 7.407938,270.635406 10.573996,267.909088 
	C12.434871,266.306671 14.219442,264.615601 16.501713,263.362122 
	C16.924910,265.526215 16.884729,267.292664 16.844547,269.059082 
	C11.767727,273.952698 6.690905,278.846313 1.307041,283.869965 
	C1.000000,281.629425 1.000000,279.258881 1.000001,276.444153 
z"/>
<path fill="#444440" opacity="1.000000" stroke="none" 
	d="
M506.497925,513.000000 
	C508.129761,510.752563 510.259521,508.505127 512.694641,506.128845 
	C513.000000,508.247650 513.000000,510.495270 513.000000,513.000000 
	C511.001862,513.000000 508.998840,513.000000 506.497925,513.000000 
z"/>
<path fill="#EBEBEA" opacity="1.000000" stroke="none" 
	d="
M16.914701,269.503845 
	C16.884729,267.292664 16.924910,265.526215 16.834883,263.336731 
	C16.798031,258.599304 16.891388,254.284988 16.914484,249.514954 
	C16.885204,247.292770 16.926182,245.526291 16.836395,243.336914 
	C17.131901,238.253494 17.558172,233.592972 17.914158,228.495789 
	C18.218950,225.943329 18.594028,223.827545 18.841393,221.313324 
	C19.804306,215.572128 20.894934,210.229355 21.918015,204.470490 
	C22.562817,201.600037 23.275166,199.145676 23.876011,196.306824 
	C25.844091,189.551163 27.923677,183.179993 30.034887,176.407990 
	C31.377630,172.901428 32.688751,169.795715 33.930859,166.312744 
	C37.574604,158.249756 41.287361,150.564072 45.073669,142.518250 
	C45.147217,142.158127 45.110516,142.106400 45.390038,141.978439 
	C45.788246,141.234543 45.906937,140.618591 46.025627,140.002655 
	C49.355797,134.905060 52.685970,129.807465 56.000648,124.350471 
	C67.157433,110.662323 77.543800,96.554611 89.744499,84.245201 
	C99.960838,73.937828 112.296783,65.731331 123.841988,56.288506 
	C129.250961,52.883827 134.512115,49.785213 140.206848,46.327850 
	C141.149826,45.684189 141.659241,45.399277 142.168671,45.114365 
	C142.168671,45.114361 142.105286,45.109562 142.127563,45.132301 
	C149.926682,41.578892 157.703522,38.002739 165.708374,34.143433 
	C169.189896,32.818413 172.443405,31.776541 175.851044,30.400745 
	C182.428055,28.101341 188.850967,26.135862 195.597778,23.964741 
	C198.390579,23.208733 200.859467,22.658369 203.693817,21.969250 
	C209.412521,20.862139 214.765793,19.893782 220.517197,18.819674 
	C223.028320,18.477007 225.141281,18.240093 227.656754,17.923597 
	C232.721329,17.529707 237.383408,17.215401 242.479996,16.803394 
	C244.671249,16.795700 246.427979,16.885706 248.622101,16.909973 
	C253.378128,16.864662 257.696747,16.885090 262.464783,16.805059 
	C264.671021,16.795078 266.427856,16.885553 268.622101,16.910217 
	C273.068665,17.193785 277.077820,17.543165 281.500610,17.798904 
	C283.628754,17.810411 285.343262,17.915564 287.485870,18.073673 
	C291.638397,18.720482 295.362854,19.314335 299.507080,19.824272 
	C301.645050,20.190905 303.363281,20.641453 305.476715,21.135368 
	C308.606567,21.787819 311.341156,22.396906 314.479004,23.046843 
	C316.692169,23.714670 318.502167,24.341648 320.685699,24.906507 
	C324.440826,25.869808 327.822388,26.895227 331.603271,27.939499 
	C333.122864,28.583075 334.243103,29.207796 335.712830,29.838921 
	C339.113556,30.897043 342.164795,31.948759 345.604065,33.036377 
	C347.400665,33.718979 348.809204,34.365685 350.566650,35.068161 
	C353.689697,36.416477 356.463898,37.709026 359.615234,39.035233 
	C361.081207,39.710800 362.169983,40.352707 363.596954,41.002480 
	C366.722839,42.612518 369.510529,44.214691 372.651306,45.884201 
	C374.087799,46.635754 375.171234,47.319965 376.588867,48.008339 
	C379.364136,49.604336 381.805176,51.196171 384.562561,52.936760 
	C386.336365,54.050369 387.793793,55.015228 389.583313,56.051834 
	C392.028961,57.681671 394.142487,59.239754 396.567078,60.941956 
	C398.023926,62.003986 399.169708,62.921898 400.624115,63.923244 
	C403.398346,65.955002 405.863922,67.903336 408.660767,69.959656 
	C410.088959,71.035515 411.185913,72.003387 412.610168,73.032471 
	C414.718079,75.001762 416.498688,76.909836 418.578735,78.951935 
	C420.009552,80.035919 421.140900,80.985886 422.592346,81.974976 
	C425.055878,84.303917 427.199249,86.593735 429.663422,88.990814 
	C430.739014,90.044472 431.493805,90.990875 432.562012,91.979233 
	C434.673004,94.283348 436.470612,96.545502 438.573273,98.946648 
	C439.693390,100.326988 440.508423,101.568344 441.627014,102.908234 
	C443.705627,105.269714 445.480713,107.532654 447.565796,109.939804 
	C448.686646,111.328026 449.497498,112.572044 450.616638,113.911743 
	C452.723907,116.633110 454.522919,119.258789 456.650208,122.004082 
	C457.446045,123.324028 457.913544,124.524368 458.682892,125.863022 
	C460.732849,128.795654 462.480957,131.589966 464.505981,134.644867 
	C465.305359,136.215012 465.827789,137.524551 466.631073,138.975861 
	C468.220764,141.512436 469.529572,143.907211 470.995850,146.621185 
	C471.873291,148.557968 472.593292,150.175583 473.612244,151.954193 
	C475.037598,155.007950 476.163971,157.900696 477.639404,160.932693 
	C478.410492,162.300140 478.832550,163.528351 479.562714,164.884308 
	C480.917145,168.068954 481.963501,171.125824 483.082642,174.560974 
	C483.552521,176.236176 483.949615,177.533066 484.685303,178.914490 
	C486.017883,182.392212 487.011871,185.785400 488.080566,189.559845 
	C488.515228,191.528183 488.875214,193.115280 489.558716,194.856094 
	C490.592896,198.386902 491.303589,201.764008 492.085083,205.540970 
	C492.446198,207.413574 492.736481,208.886322 493.160614,210.722488 
	C493.868195,214.761383 494.441956,218.436829 495.085846,222.526520 
	C495.421539,224.419617 495.687103,225.898514 496.115295,227.729828 
	C496.523743,232.082031 496.769592,236.081818 497.085632,240.511169 
	C497.115112,242.707291 497.074432,244.473816 497.164398,246.663361 
	C497.201782,251.400681 497.108551,255.714996 497.085510,260.485046 
	C497.115326,262.707245 497.074982,264.473724 497.164917,266.663269 
	C496.868774,271.757111 496.442352,276.427887 496.085938,281.519714 
	C496.072021,283.668518 495.988129,285.396271 495.939423,287.555176 
	C494.988098,293.359283 494.001587,298.732208 493.085663,304.524231 
	C492.450470,307.406128 491.744629,309.868866 491.164062,312.708496 
	C489.525299,319.118927 487.761230,325.152527 485.966003,331.589600 
	C484.930115,334.731567 483.925476,337.470093 482.950256,340.599060 
	C479.653198,348.365601 476.326721,355.741730 472.926910,363.479523 
	C472.853607,363.841187 472.890747,363.893829 472.610657,364.021027 
	C472.198395,364.763092 472.066223,365.377930 471.934021,365.992798 
	C469.576752,370.066376 467.219452,374.139984 464.884155,378.579346 
	C457.009674,389.760162 449.541718,400.925323 441.081146,411.279480 
	C434.300354,419.577942 426.682190,427.294128 418.761597,434.531006 
	C410.641266,441.950348 401.811127,448.615417 393.074524,455.328033 
	C388.737152,458.660553 383.913239,461.359772 379.136414,464.640320 
	C374.732025,467.052094 370.500702,469.168976 365.812103,471.642456 
	C364.846771,472.295044 364.338684,472.591034 363.830597,472.887024 
	C363.830597,472.887024 363.894440,472.890717 363.871887,472.867981 
	C356.357910,476.013947 348.866455,479.182648 341.180847,482.662842 
	C338.096191,483.735229 335.205688,484.496185 332.155029,485.595337 
	C325.948029,487.651886 319.901276,489.370209 313.469666,491.189026 
	C310.611420,491.806641 308.137939,492.323761 305.304749,492.998810 
	C299.450897,493.873199 293.956787,494.589661 288.224670,495.640167 
	C286.256561,495.990845 284.526459,496.007446 282.368347,496.089966 
	C277.286102,496.469086 272.631775,496.782257 267.531677,497.195312 
	C265.328979,497.204681 263.572083,497.114227 261.377869,497.089661 
	C256.621918,497.135193 252.303299,497.114807 247.535278,497.194794 
	C245.329025,497.204773 243.572159,497.114410 241.377899,497.089813 
	C236.940521,496.800934 232.940536,496.446259 228.511444,496.184570 
	C226.623901,495.860260 225.165466,495.442993 223.323776,495.090820 
	C219.253677,494.480408 215.566818,493.804932 211.482605,493.211975 
	C209.624741,492.874268 208.164246,492.454071 206.322189,492.094849 
	C202.573685,491.423859 199.206741,490.691895 195.426849,489.916443 
	C193.560486,489.259521 192.107086,488.646057 190.297150,488.094177 
	C186.559158,487.127594 183.177719,486.099426 179.397308,485.048889 
	C177.877121,484.404724 176.755920,483.782837 175.286102,483.158081 
	C171.892273,482.080475 168.847015,481.005737 165.410828,479.879303 
	C163.926865,479.217407 162.833832,478.607178 161.407440,477.992493 
	C158.335510,476.659882 155.596939,475.331696 152.488068,473.958069 
	C150.750046,473.087616 149.382309,472.262543 147.730194,471.360504 
	C144.883118,469.934509 142.320404,468.585510 139.439743,467.075256 
	C137.758118,466.055176 136.394455,465.196320 134.736084,464.310547 
	C131.855148,462.575043 129.268906,460.866486 126.345078,459.045715 
	C124.948357,458.265564 123.889229,457.597687 122.497551,456.949127 
	C119.669106,455.034302 117.173203,453.100159 114.342789,451.048706 
	C112.906441,449.978333 111.804611,449.025208 110.393906,447.974487 
	C107.942932,445.963898 105.800842,444.050873 103.333488,442.034729 
	C101.901093,440.989868 100.793976,440.048096 99.387260,438.994019 
	C96.950340,436.953796 94.813026,435.025818 92.352768,432.965698 
	C91.267487,431.916351 90.505150,430.999176 89.429626,430.034668 
	C86.963547,427.694733 84.810661,425.402130 82.339577,422.992798 
	C81.238304,421.638519 80.455231,420.401001 79.379898,419.022766 
	C77.292168,416.985168 75.496704,415.088318 73.398163,413.064880 
	C72.297638,411.689636 71.500198,410.440948 70.387794,409.092590 
	C68.271942,406.383820 66.471054,403.774658 64.339111,401.049011 
	C63.226372,399.676178 62.444679,398.419830 61.375099,397.022980 
	C59.637680,394.663727 58.188148,392.444916 56.431583,390.071564 
	C55.311615,388.346039 54.498676,386.775055 53.386768,385.043396 
	C51.619675,382.315552 50.151546,379.748352 48.346886,377.058105 
	C47.526146,375.734100 47.041935,374.533112 46.267643,373.166687 
	C44.548878,370.061768 43.120193,367.122284 41.351875,364.053741 
	C40.575737,362.694611 40.139236,361.464539 39.389034,360.114075 
	C37.974113,357.083710 36.872894,354.173706 35.448444,351.090088 
	C34.658733,349.365448 34.192249,347.814392 33.402458,346.128357 
	C32.050472,342.935455 31.021786,339.877502 29.918840,336.440125 
	C29.443821,334.762970 29.043060,333.465240 28.302940,332.084503 
	C27.248131,328.773712 26.532681,325.545959 25.498022,322.095459 
	C24.697163,319.674866 24.215513,317.477020 23.411621,315.081909 
	C22.668684,312.033905 22.247990,309.183136 21.503323,306.102325 
	C20.863741,304.098175 20.548130,302.324066 19.986504,300.239746 
	C19.438959,296.070953 19.137426,292.212311 18.483400,288.133179 
	C18.076294,286.187775 18.021681,284.462891 17.836163,282.325867 
	C17.465124,277.925354 17.224989,273.936951 16.914701,269.503845 
M131.543671,108.935356 
	C144.316406,121.760582 157.089142,134.585800 169.408173,146.955475 
	C228.392471,106.728966 286.373383,106.912636 343.316711,145.984833 
	C357.451782,131.909012 371.439026,117.980377 385.390930,104.086952 
	C307.124695,36.111523 191.282959,46.623802 128.018097,105.184120 
	C129.027893,106.266075 130.037888,107.348267 131.543671,108.935356 
M118.065369,239.726028 
	C121.456253,213.923813 131.151733,190.719254 146.819504,170.657318 
	C132.524628,156.325668 118.579811,142.344986 104.253983,127.982300 
	C71.218803,167.831284 55.188503,213.824615 57.294357,265.640808 
	C59.141068,311.080505 75.155212,351.353180 104.051605,385.714630 
	C118.507812,371.304749 132.493515,357.363861 146.346893,343.554871 
	C142.036652,336.561707 137.061157,329.445343 133.057526,321.818817 
	C119.690651,296.356018 114.768623,269.218964 118.065369,239.726028 
M376.067322,330.530518 
	C373.045929,335.062805 370.024567,339.595093 367.723511,343.046875 
	C382.067108,357.422302 396.002380,371.388458 409.903900,385.320801 
	C476.693542,308.998840 468.618652,192.868622 409.466095,128.655365 
	C395.541779,142.608246 381.600250,156.578369 367.445770,170.761871 
	C368.036987,171.610168 368.952789,172.979233 369.923279,174.308380 
	C387.227722,198.008011 396.182861,224.605667 396.907593,253.860245 
	C397.583893,281.159607 390.616791,306.540894 376.067322,330.530518 
M327.867065,403.029053 
	C333.065125,388.622650 320.906952,371.749054 304.594757,371.909882 
	C272.937500,372.221985 241.274948,371.979706 209.614609,371.997620 
	C196.223923,372.005219 184.933975,382.923950 184.994202,395.725067 
	C185.056992,409.070068 196.113403,419.980652 209.640106,419.989136 
	C240.300674,420.008392 270.962555,419.839081 301.621155,420.086365 
	C314.027618,420.186432 322.691772,415.200165 327.867065,403.029053 
M284.279419,286.807526 
	C310.761108,270.243286 334.944275,250.664413 358.815155,230.136749 
	C333.004639,225.290787 307.442474,220.841812 281.749084,217.361679 
	C271.445740,215.966095 260.660278,215.331787 250.437103,216.776749 
	C233.724457,219.138977 220.879120,234.102951 219.073502,250.594940 
	C217.131180,268.335510 226.437103,284.909363 242.473663,291.989380 
	C257.108124,298.450409 270.717560,295.618744 284.279419,286.807526 
z"/>
<path fill="#000000" opacity="1.000000" stroke="none" 
	d="
M141.849915,45.001282 
	C141.659241,45.399277 141.149826,45.684189 140.321518,45.997215 
	C140.512146,45.646282 141.021637,45.267239 141.849915,45.001282 
z"/>
<path fill="#000000" opacity="1.000000" stroke="none" 
	d="
M45.731483,140.164154 
	C45.906937,140.618591 45.788246,141.234543 45.391998,142.009338 
	C45.222069,141.554016 45.329700,140.939835 45.731483,140.164154 
z"/>
<path fill="#000000" opacity="1.000000" stroke="none" 
	d="
M364.153564,472.998230 
	C364.338684,472.591034 364.846771,472.295044 365.673828,471.966614 
	C365.487396,472.325928 364.981964,472.717651 364.153564,472.998230 
z"/>
<path fill="#000000" opacity="1.000000" stroke="none" 
	d="
M472.235535,365.838562 
	C472.066223,365.377930 472.198395,364.763092 472.608826,363.989532 
	C472.770416,364.448669 472.653717,365.066528 472.235535,365.838562 
z"/>
<path fill="#E8A625" opacity="1.000000" stroke="none" 
	d="
M131.295776,108.682907 
	C130.037888,107.348267 129.027893,106.266075 128.018097,105.184120 
	C191.282959,46.623802 307.124695,36.111523 385.390930,104.086952 
	C371.439026,117.980377 357.451782,131.909012 343.316711,145.984833 
	C286.373383,106.912636 228.392471,106.728966 169.408173,146.955475 
	C157.089142,134.585800 144.316406,121.760582 131.295776,108.682907 
z"/>
<path fill="#DC5A5A" opacity="1.000000" stroke="none" 
	d="
M118.038361,240.174698 
	C114.768623,269.218964 119.690651,296.356018 133.057526,321.818817 
	C137.061157,329.445343 142.036652,336.561707 146.346893,343.554871 
	C132.493515,357.363861 118.507812,371.304749 104.051605,385.714630 
	C75.155212,351.353180 59.141068,311.080505 57.294357,265.640808 
	C55.188503,213.824615 71.218803,167.831284 104.253983,127.982300 
	C118.579811,142.344986 132.524628,156.325668 146.819504,170.657318 
	C131.151733,190.719254 121.456253,213.923813 118.038361,240.174698 
z"/>
<path fill="#6BB497" opacity="1.000000" stroke="none" 
	d="
M376.271484,330.229218 
	C390.616791,306.540894 397.583893,281.159607 396.907593,253.860245 
	C396.182861,224.605667 387.227722,198.008011 369.923279,174.308380 
	C368.952789,172.979233 368.036987,171.610168 367.445770,170.761871 
	C381.600250,156.578369 395.541779,142.608246 409.466095,128.655365 
	C468.618652,192.868622 476.693542,308.998840 409.903900,385.320801 
	C396.002380,371.388458 382.067108,357.422302 367.723511,343.046875 
	C370.024567,339.595093 373.045929,335.062805 376.271484,330.229218 
z"/>
<path fill="#D5D5D4" opacity="1.000000" stroke="none" 
	d="
M327.725403,403.400757 
	C322.691772,415.200165 314.027618,420.186432 301.621155,420.086365 
	C270.962555,419.839081 240.300674,420.008392 209.640106,419.989136 
	C196.113403,419.980652 185.056992,409.070068 184.994202,395.725067 
	C184.933975,382.923950 196.223923,372.005219 209.614609,371.997620 
	C241.274948,371.979706 272.937500,372.221985 304.594757,371.909882 
	C320.906952,371.749054 333.065125,388.622650 327.725403,403.400757 
z"/>
<path fill="#393939" opacity="1.000000" stroke="none" 
	d="
M283.949524,286.963654 
	C270.717560,295.618744 257.108124,298.450409 242.473663,291.989380 
	C226.437103,284.909363 217.131180,268.335510 219.073502,250.594940 
	C220.879120,234.102951 233.724457,219.138977 250.437103,216.776749 
	C260.660278,215.331787 271.445740,215.966095 281.749084,217.361679 
	C307.442474,220.841812 333.004639,225.290787 358.815155,230.136749 
	C334.944275,250.664413 310.761108,270.243286 283.949524,286.963654 
M244.976395,267.457947 
	C250.096146,272.805878 256.201080,274.591003 263.102112,271.721130 
	C269.107666,269.223663 272.489746,264.428192 272.955139,257.869232 
	C273.430206,251.173935 269.093994,244.533432 262.893341,242.111038 
	C256.302826,239.536331 248.857147,241.536026 244.463669,247.060638 
	C239.847931,252.864761 239.856873,259.846252 244.976395,267.457947 
z"/>
<path fill="#D2D2D1" opacity="1.000000" stroke="none" 
	d="
M244.732773,267.176971 
	C239.856873,259.846252 239.847931,252.864761 244.463669,247.060638 
	C248.857147,241.536026 256.302826,239.536331 262.893341,242.111038 
	C269.093994,244.533432 273.430206,251.173935 272.955139,257.869232 
	C272.489746,264.428192 269.107666,269.223663 263.102112,271.721130 
	C256.201080,274.591003 250.096146,272.805878 244.732773,267.176971 
z"/>
</svg>